/* XPM */
static char *result[] = {
/* columns rows colors chars-per-pixel */
"40 40 155 2 ",
"   c #2D2A43",
".  c #352543",
"X  c #332D45",
"o  c #3A2E46",
"O  c #353147",
"+  c #3B3349",
"@  c #761D4E",
"#  c #422A45",
"$  c #4C2D47",
"%  c #412E48",
"&  c #5B254A",
"*  c #5E2C4C",
"=  c #4F3148",
"-  c #44384C",
";  c #4B3C50",
":  c #672146",
">  c #682246",
",  c #6E2946",
"<  c #652A4D",
"1  c #6A294E",
"2  c #77214F",
"3  c #74284F",
"4  c #4F4052",
"5  c #554454",
"6  c #5B4455",
"7  c #5D4B59",
"8  c #654457",
"9  c #634857",
"0  c #614659",
"q  c #634D5C",
"w  c #6B4D5D",
"e  c #724459",
"r  c #724C5E",
"t  c #62505E",
"y  c #6C515F",
"u  c #71505F",
"i  c #7B505F",
"p  c #675160",
"a  c #6C5260",
"s  c #6E5E6A",
"d  c #725361",
"f  c #7C5463",
"g  c #765A65",
"h  c #7B5B66",
"j  c #705E6A",
"k  c #74616E",
"l  c #7C636C",
"z  c #A21F57",
"x  c #A61D58",
"c  c #AD1D59",
"v  c #B71C5A",
"b  c #BC1C5A",
"n  c #82294E",
"m  c #8F284D",
"M  c #95284F",
"N  c #94324D",
"B  c #872552",
"V  c #892553",
"C  c #842C55",
"Z  c #8E2A50",
"A  c #9D2157",
"S  c #BC2E4E",
"D  c #B6304E",
"F  c #A22058",
"G  c #B82951",
"H  c #B92458",
"J  c #C31F59",
"K  c #C92D4F",
"L  c #D72C4F",
"P  c #DA2D4F",
"I  c #C12555",
"U  c #CA2455",
"Y  c #C12C50",
"T  c #CA2C56",
"R  c #D12654",
"E  c #D32A52",
"W  c #DA2E50",
"Q  c #CB3D5D",
"!  c #D13253",
"~  c #DB3453",
"^  c #DE3A57",
"/  c #DE3D58",
"(  c #E12E50",
")  c #E03252",
"_  c #825564",
"`  c #8B5566",
"'  c #845967",
"]  c #8A5867",
"[  c #8D5768",
"{  c #855C69",
"}  c #8C5A69",
"|  c #915767",
" . c #915769",
".. c #935B6A",
"X. c #9A5D6C",
"o. c #A15E6F",
"O. c #A75F70",
"+. c #85646C",
"@. c #89636C",
"#. c #8F696F",
"$. c #94646E",
"%. c #9B616F",
"&. c #8D6A71",
"*. c #966670",
"=. c #9D6270",
"-. c #936C72",
";. c #9B6D74",
":. c #957276",
">. c #9C7276",
",. c #9E7578",
"<. c #9F787B",
"1. c #A2606F",
"2. c #A36271",
"3. c #AA6473",
"4. c #A36B75",
"5. c #AB6B76",
"6. c #AE6E79",
"7. c #B16F79",
"8. c #A47177",
"9. c #A27679",
"0. c #AB747A",
"q. c #A47A7C",
"w. c #AB7C7E",
"e. c #B1717B",
"r. c #B27A7F",
"t. c #E3425B",
"y. c #E3485E",
"u. c #E64B61",
"i. c #E65265",
"p. c #EA5E6B",
"a. c #EA626D",
"s. c #A3807F",
"d. c #A27F81",
"f. c #AE7E80",
"g. c #B47E81",
"h. c #B97E82",
"j. c #A68383",
"k. c #AD8282",
"l. c #A98887",
"z. c #AC8D8B",
"x. c #B48383",
"c. c #BB8586",
"v. c #B58987",
"b. c #BB8887",
"n. c #B58B8A",
"m. c #BD8A89",
"M. c #AC908E",
"N. c #B3918E",
"B. c #BB928F",
"V. c #B29490",
"C. c #BB9591",
"Z. c #BB9995",
"A. c #C08787",
"S. c #C28B8A",
"D. c #C2918E",
/* pixels */
"j j s s s j j j j j k j j j s s s j j j s s s j j j s s s j j s s s s j s s s k ",
"6 9 [ X...| | ........| e ` X.......X.| ..X.....X.| w i | | ....X. .X.| X._ 5 q ",
"q a ..=.X.%.1.%.%.%.%.%.y $.%.%.%.%.X.%.%.%.1.%.X.%.y { %.%.X.%.%.%.*.=.X.] 0 a ",
"q q { ....' u ..} ..[ [ } } | | ..| ..i } | | X.| | ........| ..] y ] ...._ 7 p ",
"q a O.2.h.9.d 3.r.c.c.c.c.c.c.c.x.c.0.+.0.c.c.s.c.h.c.b.x.r.c.e.[ d g.6.O.X.7 p ",
"q q X.2.c.q.0 ..x.m.c.c.c.b.b.B.m.b.x.@.,.c.b.b.c.b.b.m.B.b.m.r.` t q.0.X.{ 7 p ",
"q d { ` >.:.{ ,.l.q.q.>.@.;.9.9.j.j.9.-.>.,.>.>.>.>.@.-.,.9.j.<.-.@.;.*.` { w t ",
"q X.2.%.x.m.c.m.B.x.v.x.u ,.x.v.B.B.b.b.x.x.c.x.c.x.g q.b.b.B.n.m.b.v.0.X.O.' t ",
"q =.3.2.m.S.A.A.c.m.x.9.d q.b.A.c.A.S.A.D.S.S.S.A.S.@.x.S.A.A.A.S.m.S.h.O.2.f t ",
"q ' .. .;.9.9.9.9.q.d.;.d ,.s.q.9.q.q.9.9.9.9.9.q.9.d -.q.9.q.9.9.9.9.*.} ..d t ",
"q q } X.w.;.w =.w.x.v.f.v.C.x.e.0.w.0.{ q.s.x.N.V.v.k.w.w.w.k.0.` d q.4.X.{ 7 p ",
"7 a =.2.w.-.d 2.c.b.m.m.m.S.A.s.S.D.s.-.A.S.m.m.A.A.m.m.m.c.c.c.` h m.g.O.X.7 p ",
"q q X.=.f.;.0  .r.v.v.x.v.x.x.x.x.v.x.-.0.x.x.x.x.x.c.x.x.x.x.0.f y g.0.o.] 7 p ",
"q f } } ;.:.-.j.<.9.q.;.h -.,.q.s.9.,.-.>.>.,.>.,.;.h #.9.j.l.,.;.*.>.*.] { y t ",
"q ..2.=.g.b.A.S.m.m.S.c.h x.m.m.D.A.A.m.m.c.c.x.b.0.a x.A.m.B.m.m.m.m.r.%.3.` t ",
"q ..2.=.g.m.A.m.m.c.c.c.h r.m.m.c.c.m.m.m.m.m.b.m.c.h x.A.c.b.b.m.m.m.r.O.3.` t ",
"q f }  .;.;.-.:.,.q.j.q.h :.9.,.9.q.9.>.>.9.q.s.9.,.h -.9.,.9.>.;.-.,.*.] { y p ",
"q t X.X.g.,.w =.f.n.C.C.c.n.x.f.0.s.9.{ w.x.x.v.x.s.x.x.x.w.w.0._ a g.0.o.] 7 p ",
"7 a 2.2.A.k.f 3.m.A.m.b.m.m.&.a y y @.>.b.#.t y y :.m.m.A.S.S.h. .d f.g.O...7 p ",
"q q [ X.w.;.w =.w.f.f.f.w.-.5 . * > e g +.e : , > e -.w.x.s.k.0.` w ,.4.X.' 7 p ",
"q ' [ } ;.8.q.M.z.j.q.;.0 + + 1 c I m o # M T ! T Z % h ,.s.M.l.d.9.9.*.} ..i p ",
"t 1.3.3.m.S.S.D.S.A.m.-.- + 3 x v R K D D K ^ i.i.Q M 8 ,.S.S.S.S.m.S.h.O.2.f t ",
"q X.2.1.g.v.b.c.x.x.x.d   O V b b T P ( ( P / p.a.u.G # +.c.x.c.v.b.b.0.X.=.f t ",
"q d [ { ;.;.+.*.:.j.z.g X X B b b E ( W L ~ t.i.i.t.S = g 9.,.>.*.@.>.*.` { y t ",
"q t X.2.c.9.w 2.x.m.B.+.X O V b b U ~ L W y.u.~ ~ ) S = { x.x.0.f y x.0.O.{ 7 p ",
"q y =.2.g.-.f 5.b.m.A.@.X O V b b U L W W ^ ^ W W ( S $ &.B.D.b.` h S.h.O.X.7 p ",
"q w [ ..9.&.r *.q.w.q.+.4 O 1 A b J U L W W W W E Y N 8 +.k.w.4.] d 9.=...' 7 p ",
"q { ....9.w.k.N.N.w.w.q.a ; O * z v J U E E W E I n + -.k.N.n.s.l.f.w.;. .X.f t ",
"t } 3.2.h.A.A.S.A.S.D.S.@.>.y o * F b b U U U H 3 r u x.S.A.S.S.A.S.S.h.O.3.{ t ",
"q ..X.%.0.x.v.x.x.r.g.w.y 9.-.6 X < A b J I c @ w -.d 9.v.g.k.x.x.v.x.0.X.%.' p ",
"q a [  .>.-.h =.9.l.l.,.:.q.9.#.5 O < F v c C t :.9.-.:.9.9.9.;.} h ,.*. .' 9 p ",
"7 w X.X.w.#.w %.x.n.m.b.m.m.b.x.>.7 X * F 2 9 q.x.c.m.c.c.c.m.g.X.y ;.0.%...7 p ",
"7 y %.2.A.q.r %.b.S.D.S.m.A.m.A.b.,.q X & i q.m.m.m.m.A.m.m.m.h.X.f v.r.2.X.7 p ",
"q a {  .;.:.l $.,.9.9.,.:.>.9.9.s.k.+.5 5 +.q.q.9.,.;.,.<.q.j.,.{ g :.=.[ ' 7 p ",
"q ..X.%.0.B.Z.n.x.r.x.w.y >.x.v.B.B.x.x.f.x.f.k.x.w.a ,.v.m.Z.n.n.c.x.4.X.%.f t ",
"q 1.3.3.b.A.A.A.m.b.c.w.h 9.m.m.S.A.S.S.S.S.A.A.S.S.+.v.D.A.A.A.A.S.S.h.X.2.' t ",
"q ..X.X.9.x.k.w.w.w.s.-.w ;.x.s.k.w.w.s.w.w.w.w.f.0.u ;.f.w.f.w.k.w.w.4. .%.f t ",
"q t { ..>.-.d X.9.z.N.w.>.q.k.w.9.9.9.@.,.s.k.N.l.9.9.9.q.9.q.;.{ d 9.;.| ' 7 p ",
"q y 1.2.2.{ f 3.5.e.e.6.7.7.e.7.6.5.;.{ 5.7.6.e.e.5.7.6.7.5.5.5.[ u 6.5.3...7 p ",
"q q f ' ' d y ' _ _ _ _ f _ _ _ _ _ _ u f _ _ _ ' _ ' _ ' _ f ' f y f ' ' f 7 y "
};
