/* XPM */
static char *result[] = {
/* columns rows colors chars-per-pixel */
"40 40 167 2 ",
"   c #553B54",
".  c #5E3F57",
"X  c #4D4957",
"o  c #4D4758",
"O  c #5A4056",
"+  c #5C4559",
"@  c #5E4C5A",
"#  c #634459",
"$  c #634D5C",
"%  c #6B4E5E",
"&  c #734E5E",
"*  c #66505E",
"=  c #6B515F",
"-  c #72505F",
";  c #4F5A68",
":  c #575564",
">  c #5E5563",
",  c #555969",
"<  c #5C5D6C",
"1  c #744F61",
"2  c #635563",
"3  c #6C5360",
"4  c #6D5864",
"5  c #625E6C",
"6  c #6C5C6A",
"7  c #735361",
"8  c #7C5462",
"9  c #715963",
"0  c #7D5965",
"q  c #735E6B",
"w  c #7B5D69",
"e  c #5D616E",
"r  c #4B6977",
"t  c #4C6C7B",
"y  c #5D6E7B",
"u  c #60606E",
"i  c #74606E",
"p  c #7E616B",
"a  c #636573",
"s  c #656A76",
"d  c #626B78",
"f  c #6B6F7B",
"g  c #7B6570",
"h  c #766E79",
"j  c #7E6D78",
"k  c #6C747F",
"l  c #8E4E63",
"z  c #835665",
"x  c #8D5365",
"c  c #845A66",
"v  c #8B5967",
"b  c #8F5668",
"n  c #835D69",
"m  c #8C5A69",
"M  c #915B67",
"N  c #925769",
"B  c #945C6B",
"V  c #9A5E6D",
"C  c #A25F6F",
"Z  c #A45F70",
"A  c #85626B",
"S  c #8D646D",
"D  c #8D686F",
"F  c #94646E",
"G  c #9D616E",
"H  c #91686F",
"J  c #886772",
"K  c #836A74",
"L  c #8E6A71",
"P  c #806E78",
"I  c #976770",
"U  c #9A6571",
"Y  c #946C72",
"T  c #9B6D73",
"R  c #8D7077",
"E  c #967175",
"W  c #9B7276",
"Q  c #9D7579",
"!  c #A2636F",
"~  c #AA646F",
"^  c #A46371",
"/  c #A96573",
"(  c #A56972",
")  c #AC6B75",
"_  c #BD6F77",
"`  c #A37376",
"'  c #A37579",
"]  c #AB767B",
"[  c #A57A7B",
"{  c #AC7C7D",
"}  c #BD7077",
"|  c #B2757C",
" . c #BF7379",
".. c #B27B7E",
"X. c #C36674",
"o. c #C0767A",
"O. c #A4827F",
"+. c #AC827E",
"@. c #B3847F",
"#. c #6C7581",
"$. c #677985",
"%. c #6D7B86",
"&. c #6D7F89",
"*. c #A57E80",
"=. c #AE7F80",
"-. c #B37E81",
";. c #B97E82",
":. c #70808A",
">. c #A48682",
",. c #AE8281",
"<. c #AA8C86",
"1. c #A68E88",
"2. c #B48383",
"3. c #BA8585",
"4. c #B68A84",
"5. c #BD8987",
"6. c #B18F89",
"7. c #BE8A89",
"8. c #AC928B",
"9. c #B3938D",
"0. c #BC938F",
"q. c #B29790",
"w. c #C28787",
"e. c #C38A87",
"r. c #C28C8A",
"t. c #C88F8C",
"y. c #D18885",
"u. c #DD8887",
"i. c #D48D88",
"p. c #C6918E",
"a. c #C9918E",
"s. c #D2958C",
"d. c #D9908A",
"f. c #D49A8F",
"g. c #CA9490",
"h. c #D29E90",
"j. c #DB9C91",
"k. c #E8918D",
"l. c #E79690",
"z. c #E89690",
"x. c #E29A91",
"c. c #E99E94",
"v. c #D6A394",
"b. c #DCA897",
"n. c #DBAF9F",
"m. c #E3A295",
"M. c #EDA296",
"N. c #EFA598",
"B. c #E4AE9B",
"V. c #F5AC9D",
"C. c #FCAC9E",
"Z. c #EAB29E",
"A. c #F6B29F",
"S. c #DCB7A6",
"D. c #EEB6A0",
"F. c #F7B5A1",
"G. c #FAB5A1",
"H. c #F5BBA4",
"J. c #FDBAA5",
"K. c #F8C0A7",
"L. c #FCC5AB",
"P. c #F6C9AF",
"I. c #FDC9AE",
"U. c #F6CBB1",
"Y. c #FDCDB2",
"T. c #FFD2B5",
"R. c #FED4B8",
/* pixels */
"$ $ $ $ $ % $ $ $ $ % @ % * = = = = 3 = = = = = = = $ = $ $ $ $ $ $ % $ $ $ $ $ ",
"@ % V ! V G V U ! V G G $ c N x b l b B N b b x l M % & V V G G G G G G Z m @ $ ",
"$ % m F B B V B B V V z S c W [ >.>.[ c Y [ O.>.1.W 0 H m M V B B V B B B c $ $ ",
"@ % m B V z 7 B V v 7 4.D.2.Z.L.P.U.I.@.b.L.P.I.R.Z.4.Z.4.7 v G b 3 m B B c @ $ ",
"$ 3 Z / 3.' 1 / ..` S.R.H.2.H.I.L.L.L.5.Z.I.K.K.I.H.5.H.R.S.` ) B 7 =.| Z V $ $ ",
"@ * V G ;.Q $ B T n.T.F.z.( d.x.x.x.l.( y.M.x.j.c.i.( z.H.Y.n.I m $ Q ] B c @ $ ",
"$ 1 m m T Q I J O.L.H.k.X.z z x x x z = - z x x x z z X.z.H.L.' J I Q U M m 7 @ ",
"* V Z U 2.7.7.Q f.L.M._ = - B G F G x > ; = G G G V 7 3 X.N.L.h.Q r.3.] V U z @ ",
"% Z / / 3.r.3.' D.J.u.8 @ 0 z z z z 8 2 5 % & % % & $ X 8 u.L.Z.] 3.p.;.C ^ c @ ",
"$ 0 m m T ' L ,.Y.J.} % B ) ] ] ] ] m 2 < = S Y Y Y Y m % _ J.I.@.J [ H b m 8 @ ",
"$ * B V =.T # I b.f.m 7 G ` { { { { F 2 e - ` =.{ { { ( = v j.b.H # { ` V m @ $ ",
"@ 3 G ^ =.L 1 c @.] 0 @ 7 D L D L Y S 9 e c Y L L L D = @ z ] @.0 7 7.;.Z V @ $ ",
"$ $ B Z =.E   *.I.G.( r a ] 7.5.5.5.5.J < { w.5.5.7.] s r ~ J.I.[ O =.] V c @ % ",
"$ z m m T Q S 1.T.A.( y h { r.5.5.5.w.R < @.r.7.5.p.] h y ( G.Y.8.n [ H m m 7 @ ",
"$ B Z Z -.7.-.8.Y.G.( 8 ` +.,.,.{ ,...K s T +.{ { { ] Y 9 ! J.I.9.-.t...C / m @ ",
"$ B Z U -.r.-.<.I.G.( @ 9 = = = = = $ 6 f 0 Y Y D D D E n ~ G.P.6.-.r...C / m @ ",
"% 8 m m I W n +.I.F./ 1 M v m m v m v q s { 5.5.3.5.5.5.' ( H.L.,.w ' H b v 1 @ ",
"@ * B G 2.W + ] L.A.~ m / ^ / ^ / / C p s ] w.5.5.5.5.r.{ ~ G.L.W + 2.{ V m @ $ ",
"@ 3 Z / r.=.7 n +.` 0 7 c c c c 0 c z 6 a 0 D D D D A D n & ' { 0 % =.-.C B $ $ ",
"$ * M V { Y # T Z.j.V W 2.=.+.+.=.+...p , ( +.{ { { { ,.T V m.B.I + Q ( B m @ $ ",
"$ c N B T [ Q 8.T.G.) ,.a.r.r.r.r.r.{ i > Y w.r.r.p.r.a.@.( J.T.6.I *.U b B 8 @ ",
"$ G / / 5.t.-.8.Y.A.~ D { W ` Q Q ( g #.k k S Q W W W ` A ~ G.P.q.-.a.;.G / c @ ",
"$ V Z U 2.5...<.Y.F.! o * $ $ $ 2 $ 5 :.#.:.c W E E E W p ! J.I.6.=.7.] V Z z @ ",
"$ 1 m b Y Y 0 O.I.F.! % G G G V G N q #.k #.] r.w.w.7.r.{ ( G.L.>.7 W I b c 3 $ ",
"@ 3 V ^ 3.' # =.I.J.( % ! ! C V ! V i %.#.%.T 7.4.5.3.5.` ( J.I.' + 3.-.C m @ $ ",
"@ 3 Z ^ -.L & I v.s.M = A c n n A 0 6 &.#.#.% 9 9 3 4 9 % v f.v.S 3 7.-.Z V @ $ ",
"@ % m B ` J 3 c @.+.v ] 5.5.2.5.5...K $.#.%.- c z z z z * z ..@.c 3 ' U M c @ $ ",
"$ m B B ` =.*.>.T.A.) ] r.5.5.5.w.5.J $.k %.M / / / ^ / % ( J.I.,.Q -.T B V z @ ",
"$ B / ^ 3.t.-.8.T.A.( A Q Y Y Y E S q &.k %.- m c c c v * ! A.I.q.-.g.;./ / S @ ",
"$ B V V ] 2.=.<.Y.A.( - T ' ' ' [ ` i d s k F [ ' [ [ T A ( J.I.6.] 3.` V Z z @ ",
"@ - b B ` Y & >.Y.G.( d P -.r.5.5.r.] q , S 5.7.5.r...j s ! J.I.>.3 ' I b z $ $ ",
"@ % V V =.L . [ I.G.( t d ] r.7.5.7.e.L < ..r.w.5.r.[ d t ( J.P.*.  Q ' Z B @ $ ",
"@ 3 G / 3.*.. ' L.V.! o 3 Y W W W W I q a H W Y Y W Y % X ~ G.K.' $ 3...Z B @ $ ",
"$ % m m T Y w z =.` 0 c N m m m v v 8 > 5 S ' W Q W Q ' F & ` [ 0 9 W I b z $ $ ",
"$ B V V =.0.9.T D.m.G B / / ^ / ~ / B 2 u -.t.r.r.r.r.t.2.! m.B.' { 3.` V V z @ ",
"* ^ / / 3.t.-.8.Y.G.( + 8 7 & 1 - & % > 5 W 2.=.-.-.=.2.W ( J.T.q.-.a.;.Z ^ z @ ",
"$ m V V ' =.' 8.T.A.! = A p p p p p n 6 < * 3 3 * 3 3 3 @ U J.P.9.` 2.( B B z @ ",
"$ % m B Q Y $ ` J.V.~ { t.7.r.r.7.7.w.J ; 7 m m m m m M % ! C.H.` $ ' T M c $ $ ",
"@ = ^ Z / n 1 B o.} x D ' W ` [ ' [ ` w : - F M F B B F = z }  .z % ) ) / B @ * ",
"$ * 0 z z 7 3 * + @ $ @ $ @ @ @ @ @ @ @ $ $ @ @ $ @ $ @ $ $ @ + $ = 0 z m 8 @ $ "
};
