/* XPM */
static char *result[] = {
/* columns rows colors chars-per-pixel */
"40 40 214 2 ",
"   c #4B313F",
".  c #00244B",
"X  c #2D2C4B",
"o  c #35304E",
"O  c #3B354D",
"+  c #233B55",
"@  c #383655",
"#  c #3E3C55",
"$  c #45324B",
"%  c #433C54",
"&  c #4B3A56",
"*  c #443E59",
"=  c #4D3E58",
"-  c #533D59",
";  c #6E3B4A",
":  c #264C5A",
">  c #3E4157",
",  c #3D435A",
"<  c #3F4A5C",
"1  c #2F4E62",
"2  c #344B62",
"3  c #2E576B",
"4  c #395969",
"5  c #335C70",
"6  c #366472",
"7  c #366976",
"8  c #357479",
"9  c #3B757A",
"0  c #464457",
"q  c #424459",
"w  c #4C455B",
"e  c #57465A",
"r  c #535D5D",
"t  c #72444C",
"y  c #684F5A",
"u  c #744C51",
"i  c #67545C",
"p  c #795957",
"a  c #44635F",
"s  c #79635B",
"d  c #494B63",
"f  c #495766",
"g  c #4F576B",
"h  c #565666",
"j  c #585F73",
"k  c #675665",
"l  c #6A5664",
"z  c #6D5967",
"x  c #745565",
"c  c #745967",
"v  c #765868",
"b  c #745B69",
"n  c #7B5E6B",
"m  c #436261",
"M  c #4D716E",
"N  c #4C6874",
"B  c #57677A",
"V  c #557D76",
"C  c #646B6B",
"Z  c #76666B",
"A  c #7D626C",
"S  c #676773",
"D  c #7B6C72",
"F  c #7D6F7A",
"G  c #7D707A",
"H  c #A94647",
"J  c #95615C",
"K  c #B36353",
"L  c #805769",
"P  c #815D6C",
"I  c #84616E",
"U  c #8C626F",
"Y  c #977667",
"T  c #836670",
"R  c #8D6470",
"E  c #856A73",
"W  c #8C6C74",
"Q  c #806F7B",
"!  c #8C6E78",
"~  c #946672",
"^  c #9C6773",
"/  c #956974",
"(  c #9B6A75",
")  c #8F7176",
"_  c #81707C",
"`  c #927177",
"'  c #957479",
"]  c #9B757B",
"[  c #967A7F",
"{  c #9D797D",
"}  c #B47A60",
"|  c #A16B77",
" . c #A56E79",
".. c #AB6F7B",
"X. c #A4737B",
"o. c #AC727C",
"O. c #A27B7F",
"+. c #AD787F",
"@. c #B1727D",
"#. c #D05649",
"$. c #E06B52",
"%. c #E27959",
"&. c #398379",
"*. c #449476",
"=. c #4D9477",
"-. c #45967A",
";. c #4B9C7B",
":. c #6D9979",
">. c #54A37E",
",. c #65A47E",
"<. c #A8876D",
"1. c #B68A6A",
"2. c #AE8D70",
"3. c #BC9975",
"4. c #EF835C",
"5. c #D88E68",
"6. c #C49D74",
"7. c #C9A378",
"8. c #D5A778",
"9. c #E4A674",
"0. c #F8AF76",
"q. c #E3B57F",
"w. c #2F7882",
"e. c #317782",
"r. c #327A84",
"t. c #397F87",
"y. c #5B6F83",
"u. c #667783",
"i. c #6B7B8C",
"p. c #757984",
"a. c #8A7E86",
"s. c #9E7D81",
"d. c #AD7780",
"f. c #A57E81",
"g. c #AA7D81",
"h. c #B57C83",
"j. c #B87E84",
"k. c #2D838B",
"l. c #3B8482",
"z. c #3A8A87",
"x. c #358589",
"c. c #3A9B8D",
"v. c #309094",
"b. c #379A91",
"n. c #389891",
"m. c #3DA595",
"M. c #428B86",
"N. c #439A87",
"B. c #79818D",
"V. c #728694",
"C. c #4AAC85",
"Z. c #44AB8F",
"A. c #48A989",
"S. c #4AB68B",
"D. c #4CBD8C",
"F. c #56BF8B",
"G. c #42AD92",
"H. c #44B395",
"J. c #48BA95",
"K. c #70AC83",
"L. c #7CB687",
"P. c #4EC28C",
"I. c #4EC88E",
"U. c #53C78F",
"Y. c #4CC392",
"T. c #6FCE92",
"R. c #6AD495",
"E. c #75D998",
"W. c #84929C",
"Q. c #A68283",
"!. c #AB8485",
"~. c #AE8888",
"^. c #AD8B8A",
"/. c #B38587",
"(. c #B98286",
"). c #B48788",
"_. c #B88789",
"`. c #B48B8A",
"'. c #BB8D8C",
"]. c #A99388",
"[. c #B4918E",
"{. c #BC918E",
"}. c #BC9491",
"|. c #B79A97",
" X c #B6A585",
".X c #8394A0",
"XX c #8C9BA3",
"oX c #989BA5",
"OX c #93A6AE",
"+X c #9BABB2",
"@X c #ABADB3",
"#X c #AFB4BC",
"$X c #C18F8E",
"%X c #C1908F",
"&X c #C49592",
"*X c #C59995",
"=X c #CA9A96",
"-X c #C29E99",
";X c #CA9E98",
":X c #CAB28E",
">X c #E8CF99",
",X c #E7D59E",
"<X c #F2D094",
"1X c #E8D7A0",
"2X c #FFEDA8",
"3X c #B9C6CA",
"4X c #BCCBD0",
"5X c #C3C8CC",
"6X c #CFD1D5",
"7X c #D4D9DA",
"8X c #CDE1DD",
"9X c #DDEFEB",
"0X c #E6EDEC",
"qX c #ECF5F2",
/* pixels */
"_ Q F G G G G G F F F Q Q F F F G F F F F F G F F F Q Q _ F F F G G G G G F Q Q ",
"l v ^ ^ ^ ^ ^ ^ | ^ ^ ~ c ^ ^ ^ ^ | ^ ^ ^ ^ | ^ ^ ^ c P ^ ~ ^ ^ ^ ^ ^ ^ | ~ l l ",
"l n .. . .o... . . ...( b | .. . . ... . .X.X. . . .n R  .|  ... .o. ... .( b z ",
"z n ( ( ( I I ( / ( ( ( ~ ( ~ ( ( ( ( I ~ ^ ^ ( ( ^ ~ / ( ( ( ( ( b ~ ^ ^ ~ z z ",
"k U @.@.$X] P h.'.'.$X'.'.$X%X$X'.$X(./ '.%X%X%X$X$X'.&X%X'.'.(.| n g._.....b z ",
"k I ..+.&XO.x o.}.*X&X&X*X[.`.[.}.'.Q.E ] !.`.&X&X`.~.).`.}.&X'.| l f._. .| z l ",
"z I / / f.[ / Q.^.Q.f.O.` c # h s.b # % 0 0 c { s.k % 0 w ! ^.Q.{ ! { { ~ ~ n z ",
"n o. .o.{.*X%X-X*X}.*X!.w Y 3. XD ]. X6.3.} J c b Y 1.K H p Q.}.}.&X&X_. ...( z ",
"P o.@.h.&X&X*X&X%X%X{.] @ 3.2X1X< :X>X<.1.9.} . X 3.0.4.$.t A *X&X&X=X$X..o.~ z ",
"b ( ( ( !.!.!.!.!.).^.` @  X2X1XD :X:Xy i 7.6.i u 7.0.4.%.u z !.!.!.!.O.( | ~ z ",
"k n (  .).! n X.~.[.{.Q.w 2.<X,Xq.>X>X8.8.q.:X9.5.9.9.%.#.; Z !.| b f.h.| ~ z z ",
"l R o.d.'.' P h.&X&X=X`.$   s D s s s s s s p p u p p t ; $ T {. .n }.%X@...b z ",
"k A  .X.'./ c  .'.}.!.E oX@Xp.@ :.oXoXu.@ B V.i.y.# 2 B N j j R R z !.)...( z z ",
"b R / ( Q.{ { [.!.^.E 0 #X6XoXw V.3X3XV.d B.+XXXi.d h i.y.y.g e ] { f.O.~ ( P z ",
"n  .o.o.%X&X&X*X&X&XQ.0 % % * > > # * q # > # q * > # > # % @ k '.*X&X'...@.| z ",
"n  . .o.%X&X&X&X&X%X`.[ % 2 7 w.e.w.w.e.e.w.r.e.e.r.e.w.5 * o h '.&X*X$Xo.@. .z ",
"b ~ ( ( Q.f.O.g.f.^.f.y % 9 c.Z.G.G.Z.Z.G.G.Z.Z.H.8 8 c.r.2 e E O.O.f.X.( / T z ",
"l n | X.'.` L +.[.Q.a.p.% l.J.D.;.S.Y.D.;.A.J.S.&.G :.*.x.1 A ).^ z !.)...( z z ",
"l R @.h.=XQ.R (.*Xx W.6Xp.9 G.C.2 M Z.-.* M.H.M.M 5X@X+ x.1 E $X .n !.'.....b z ",
"k A | X.`./ n o._.y a.qX7Xp.7 N.q @ , 0 @ M.l.B 5XqX@X: t.1 A ).| c O./.| ( l z ",
"b / ( ( Q.!.^.|.|.l u.8XqX#XB M K.L.,.;.K.V N XX0X9XW.@ x.x.N b ].!.Q.O.( ( R z ",
"n o...h.&X&X*X&Xs.S V XX4XOXB 0 :.T.R.F.,.r d .X3X+X:.9 c.H.c.C ) {.*X$X .o.( z ",
"n o...@.{.%X&X~.& *.;.f V.j o # d -.I.C.f > O w V.j 9 H.P.P.P.;.> { &X'. .o.( z ",
"c U / / O.] ] ( - =.D.C.f % O 2 z.S.D.S.N.f # # d l.H.P.P.P.J.z.w A O.X.~ ~ P z ",
"k I ..o.&X] P d.Q.C &.A.q 2 7 8 4 m a m f 7 e.r.x.S.P.D.H.m.z.g b z ~.'...| z z ",
"k U @.o.'.) ~ j.=XO.S 6 0 6 k.k.7 4 5 5 5 r.v.b.H.D.P.S.V 8 B [ X.I {.%X@...b z ",
"l n ( ( g.E P O.~.~.` w % 7 v.b.b.b.b.b.b.c.Z.H.D.P.P.C.4 o Z 2.( b { +.( ~ z z ",
"Z ( ( X.).`.}.|.|.`._.{ % 7 b.m.D.D.P.D.D.P.P.P.Y.P.P.S.x.1 A `.[.).).g.| | ~ z ",
"n | @.o.&X&X*X&X*X*X=X).& 7 c.D.P.P.P.P.P.P.P.P.P.D.P.J.z.1 T &X*X&X=X&X..@. .z ",
"n  . .X._.{.{.'.'._.'.f.% r.G.P.Y.P.R.E.U.R.E.E.U.I.D.m.r.1 n '.'.}.'.). .o.( z ",
"z n / ( Q.` W X.Q.|.`.' w &.J.D.;.*.>.K.;.,.L.K.;.A.m.n.3 h E f.( T { O.( ~ b z ",
"l I ..o.'.W P o.}.*X;X).e *.D.-.r w & & = - & - w 7 t.8 d s.*X'...n { )... .z z ",
"l I o.@.&X] L +.&X*X;X[.e =.;.r s.!.).! ` f.~.[.^.z < h Q.%X&X'.o.n ).'.....b z ",
"z A ( ( Q.[ ! X.Q.Q.Q.] & : r E ^.[.!.' f.!.~.~.!.W z E Q.^.[.Q.] I O.O.~ ~ b z ",
"n  . .X.{.-X-X{.{.{.{.!.y b ' }.-X-X}.'.'.'._._.'.'.E f.{.}.-X-X{.}.'./. . .( z ",
"P @...h.&X&X&X&X%X%X'.Q.A ).*X*X&X&X*X*X*X*X*X*X*X=X) ).=X&X&X&X&X&X=X%X....~ z ",
"n | | X.).'.`.`.`.`.`.s.b !.{.[.`.`.'.`.`.`.`.`.`._.I { '.`.`.`.'.`._.!. . .~ z ",
"l A ( ( Q.! I X.Q.[.|.!.f.~.^.!.!.!.f.` f.^.[.|.[.!.f.Q.!.Q.!.g./ n { f./ ~ b z ",
"l I @.X.o.T ~ @.h.j.j.h.j.j.j.j.h.d.f.~ h.h.j.j.(.h.(.j.j.h.h.+.( n d.h.@...b z ",
"l n R / R n A ~ R R U R R R R R U U U n U R R R U U U U U R U R R b P ~ ~ I z z "
};
