/* XPM */
static char *result[] = {
/* columns rows colors chars-per-pixel */
"40 40 64 1 ",
"  c #6E5967",
". c #6F5C68",
"X c #715B67",
"o c #735E6A",
"O c #7B5F6B",
"+ c #75616C",
"@ c #7B636D",
"# c #7F6570",
"$ c #7C6972",
"% c #84636E",
"& c #8A626F",
"* c #866570",
"= c #8D6671",
"- c #836971",
"; c #8C6B74",
": c #916772",
"> c #936B75",
", c #996D76",
"< c #966F78",
"1 c #9D6F78",
"2 c #8C7176",
"3 c #8E7478",
"4 c #927177",
"5 c #947479",
"6 c #9D717A",
"7 c #95787B",
"8 c #9B7B7E",
"9 c #A06E77",
"0 c #A06E78",
"q c #A3727B",
"w c #A8747D",
"e c #A17B7E",
"r c #A8797F",
"t c #9E7E80",
"y c #A37E81",
"u c #A97E82",
"i c #968183",
"p c #9F8181",
"a c #A48384",
"s c #AA8585",
"d c #A68887",
"f c #AA8887",
"g c #AE8788",
"h c #A68B89",
"j c #AC8B89",
"k c #B08686",
"l c #B28788",
"z c #B38C8B",
"x c #B98E8D",
"c c #AC918E",
"v c #B5918E",
"b c #B9928F",
"n c #AB9592",
"m c #AE9995",
"M c #B49591",
"N c #BC9591",
"B c #B39A96",
"V c #BE9994",
"C c #B69D99",
"Z c #BE9E99",
"A c #BBA19B",
"S c #C19A95",
"D c #C29F99",
"F c #C1A19A",
/* pixels */
"X%%%%%%%%%%@X%%%%%%%%%%%%%+ @%%%*%%%%%@X",
"+6wqwwwwwqr>+qwqwwwwwqwwww>.,qqqqqwwwwq+",
"o=>==*;::::%%::;:;;==:::;:%%:>::;>%=::=.",
"+61ueo,ruuusruuuuur-6suuuauurarew>X8uq,+",
"OwwSN+:xSSSSVDDFFSv4aNSSSSSSDDSDz:oszqq@",
"X:>aa &ecjffggfjjfj27ffffffjgjjjy;X8y>;.",
"><>ecdjCcjj7@ajjBBjjfsdaaj5+afcBjjfge>,:",
"wwwbSVVSSbNp-zvbNSSSSSSSSDj;SSVSSSVSbqq>",
"6qqlNNNxxMh;OgMvbvbbNvbbzba#vNvbbNNNlqq,",
"@;;8t;58phh7icdappa77aahcj72tppp85288;;%",
"+,0kao,lNNNMDAxjvbf2jNNSAVNNvbvNk,ojlq1+",
"@qqzao:zNNSSSNNNSFNpvSbSNSNSSSbNz=@bbwq+",
"o;,ayX=tjcjsjdsjgfj58jfffffffjjca%oyy,>X",
"<,,yjsMMhvj5@sjMvcjffjfaff4+afAMjjfjy><>",
"<q0zNNSSVVDj2SVSSVVVVNNNbS72SSVVVVSSbwwq",
"661gNNNvvxbe-vbvbbbbNvNNbba#vbvbbbNbkqq1",
"%;:8t;5tajmp3dapapa78adhha72aapae8;87:;@",
"+9qzz+,kVAFVNVNNvvz2gVMVVbNNbvzvs&.zxqqo",
"@qwNb@9xVNSNVVSSVSb8vSVVVNVNNSNSx,+dzqq@",
"+>,up+>pjffdddffjjj78gsfjdffffjca:o8y<:X",
";,>ydjAAMcj8@sjcBBcjffjffz8+fjcBvcjjy<,>",
"ewwbVVVVNNVt2SSVSSSVSSVbNbt2SSSSSSVVbqq<",
"6q9kNNNvvvj2-bNbbbbbbbvzvj2%bbbbvbNbl6q,",
"@:>8p-48anc82tppppa57aahnc828ppp85;88:=@",
"+1qzzO,lNAVNNNzzbbd2jVNVAANNNzNvg%Xjxqqo",
"@qqza+9xVNNSVVSVSFNtvSVbSNNVSFSFb>@NNqq@",
"+:>87+>addfaaaffjaf57gddafsaadffe>+8e>:X",
"4,4ujjBAMjz7@sfMAvjjgffsak2@fcAMjvjja,,>",
"<qqzSSSSVVFf3SSNNNSSVVNVNN82SSSSSVVSNqwq",
"1q1kvbvvvzbe#vvvvvvvvvvbvNt@vvzvvbbbl1q1",
"@;:8e-4ehmp88daapaa58adcca87tapa8<-88:;O",
"+q1gaX:kVAAVVVbbvNz2jVNFANNNNNNNz1X8gq1o",
"+qqbjO:lZVFSSbSSVVN87jbNVVNSVNbVxq+jbwq@",
"+:<ea$>yfdfaaaafhjj57adjjdaaadjce>+pe>:o",
"<1,aMZMcjzv7@gzvBZvcjjjgfz8@fvBAvvzja1,<",
"qwwxSNSNbbvp@jNNSVVVVSSSVDj;VSVNVSSSbq0<",
"6qqgvbbxzvj2@jNvMxvvvvvxzbp@zbvvvvbblqq,",
"@=>8p-4ehmcp7dhdaaa57ddMnd87aaaa85-88;=@",
"+16u8X,uzBvlzzvzlgd;axzBBlzzkkjgy&Xakq1o",
"@,11;o1qq91qqq1q61,%<q09qqq1qqq16:+,qq1o"
};
