/* XPM */
static char *result[] = {
/* columns rows colors chars-per-pixel */
"40 40 226 2 ",
"   c #00003C",
".  c #240039",
"X  c #30153C",
"o  c #420839",
"O  c #6A002D",
"+  c #73213E",
"@  c #153552",
"#  c #2C2A48",
"$  c #342441",
"%  c #352C45",
"&  c #382E48",
"*  c #37314B",
"=  c #3A324A",
"-  c #3B3D53",
";  c #521F45",
":  c #761741",
">  c #472E49",
",  c #582846",
"<  c #46344B",
"1  c #5B354A",
"2  c #453D57",
"3  c #573C56",
"4  c #652A47",
"5  c #63344C",
"6  c #7C3045",
"7  c #653E56",
"8  c #334558",
"9  c #2D4661",
"0  c #2F5464",
"q  c #365368",
"w  c #2A6372",
"e  c #4A435A",
"r  c #5E4856",
"t  c #564859",
"y  c #5D4B5A",
"u  c #545455",
"i  c #5F505E",
"p  c #6A464E",
"a  c #664756",
"s  c #634C5B",
"d  c #6B4D5C",
"f  c #754A5C",
"g  c #62505E",
"h  c #6B515E",
"j  c #77575B",
"k  c #72525D",
"l  c #494F63",
"z  c #574E61",
"x  c #485769",
"c  c #595665",
"v  c #465F72",
"b  c #545E73",
"n  c #674B61",
"m  c #7A4F61",
"M  c #665261",
"N  c #695261",
"B  c #655B68",
"V  c #6E5E6A",
"C  c #735462",
"Z  c #7D5463",
"A  c #735965",
"S  c #7B5A65",
"D  c #715D6A",
"F  c #7A5969",
"G  c #4B6879",
"H  c #596977",
"J  c #6C626C",
"K  c #79626C",
"L  c #666F7B",
"P  c #796671",
"I  c #92002A",
"U  c #870039",
"Y  c #AF052F",
"T  c #82293C",
"R  c #CB1736",
"E  c #962E48",
"W  c #89364C",
"Q  c #AD344C",
"!  c #C52A40",
"~  c #C4394A",
"^  c #D83D4C",
"/  c #E13D4D",
"(  c #894658",
")  c #954E56",
"_  c #B5464D",
"`  c #AF4C5A",
"'  c #A4565B",
"]  c #8D695D",
"[  c #AE6D5B",
"{  c #A5725A",
"}  c #8C4F62",
"|  c #825564",
" . c #8C5566",
".. c #855967",
"X. c #865C69",
"o. c #8C5A69",
"O. c #925667",
"+. c #945B6A",
"@. c #9A5D6C",
"#. c #A15E6F",
"$. c #A65F70",
"%. c #85616C",
"&. c #8A636C",
"*. c #896869",
"=. c #94646E",
"-. c #9B606F",
";. c #97686F",
":. c #8A726B",
">. c #886873",
",. c #8B6B72",
"<. c #956670",
"1. c #9D6270",
"2. c #936C72",
"3. c #9B6D74",
"4. c #8A7674",
"5. c #947577",
"6. c #9C7276",
"7. c #9E7579",
"8. c #9E7A7B",
"9. c #A2666B",
"0. c #B27465",
"q. c #A36271",
"w. c #AA6373",
"e. c #A46C75",
"r. c #AB6B76",
"t. c #AE6E79",
"y. c #B16F7A",
"u. c #A57077",
"i. c #A2767A",
"p. c #AB747A",
"a. c #A47B7C",
"s. c #AB7C7E",
"d. c #B87873",
"f. c #B0727B",
"g. c #B2797E",
"h. c #C8474C",
"j. c #DD434B",
"k. c #D34D4E",
"l. c #E24D4F",
"z. c #E44F51",
"x. c #E65A56",
"c. c #CD6E57",
"v. c #EB645B",
"b. c #EE695D",
"n. c #F06559",
"m. c #C86D66",
"M. c #DB7972",
"N. c #E86D63",
"B. c #F06C60",
"V. c #EC7262",
"C. c #F17764",
"Z. c #ED7C71",
"A. c #AA8765",
"S. c #B2827D",
"D. c #AC9073",
"F. c #B4A27F",
"G. c #D18F67",
"H. c #D4966B",
"J. c #F39365",
"K. c #E98276",
"L. c #CCA678",
"P. c #D6AC78",
"I. c #ECAA74",
"U. c #F5B779",
"Y. c #FFC17D",
"T. c #5F7182",
"R. c #677886",
"E. c #647689",
"W. c #707C85",
"Q. c #977D81",
"!. c #AE7E80",
"~. c #B37E81",
"^. c #B87D81",
"/. c #6B808E",
"(. c #7B838D",
"). c #6D8392",
"_. c #758996",
"`. c #7C939B",
"'. c #7994A2",
"]. c #7D9AA6",
"[. c #7E9DA9",
"{. c #9B8884",
"}. c #888D99",
"|. c #948C90",
" X c #8F9098",
".X c #A58383",
"XX c #AD8282",
"oX c #A98E8C",
"OX c #B48384",
"+X c #BA8485",
"@X c #BB8987",
"#X c #B58A88",
"$X c #BC8A89",
"%X c #AB928D",
"&X c #BC918E",
"*X c #BA9390",
"=X c #B6A582",
"-X c #819FAA",
";X c #9A9CA6",
":X c #83A1AB",
">X c #88A6AF",
",X c #9AA6AB",
"<X c #8CABB3",
"1X c #9EADB3",
"2X c #97B2BA",
"3X c #A3A5AA",
"4X c #A6ADB3",
"5X c #C08787",
"6X c #C28B8A",
"7X c #C4958C",
"8X c #C99F90",
"9X c #E8998B",
"0X c #F39283",
"qX c #CBAB8F",
"wX c #C7B0A1",
"eX c #DBBAA9",
"rX c #E7BDAA",
"tX c #D9C48C",
"yX c #F1C688",
"uX c #FDDB98",
"iX c #F1C9B4",
"pX c #FCE6A2",
"aX c #B7BCC2",
"sX c #B7C4C7",
"dX c #BECCD0",
"fX c #C6D4D6",
/* pixels */
"D V V V V D D V D V V D D V D V V D D V D D V D D V V D D V V V D V V D V V A J ",
"r a O.@.+.+.+.+.+.+.+.O.d O.+.+.+.+.+.O.+.+.+.+.+.O.d Z O.O.+.+.O.+.+.+.+.| t s ",
"g N -.1.@.1.@.1.1.<.1.+.M =.1.1.1.1.@.q.-.-.-.1.q.=.M X.1.1.@.1.-.1.-.1.#.o.y N ",
"y d o.o.+.| C +.+.o.+.O.O.O.o.O.o.+.O.Z o.+.o.O.O.O.O.+.o.+.O.+.o.h o.O.+.| y M ",
"s C q.q.^.3.C w.OX^.+X+X+X+X+X+X+X+Xp.&.s.+XOX+X^.+X+X+X+X~.OXf.o.C s.y.$.+.y M ",
"y N @.$.$Xi.a @.OX$X+X@X@X@X@X$X@X+X~.%.i.+X@X@X+X+X$X@X$X$X@Xg. .d a.p.@...y M ",
"s C o.o.6.5.X.8..Xa.a.6.&.3.a.8..X.Xi.2.3.7.6.6.7.6.&.2.6.!..X8.2.>.3.<.o.o.h M ",
"d 1.1.q.OX$X+X&X*XOX@Xs.C i.OXOX*X*X@X@XOX+XOX+X+XOXF a.#X@X*X@X$X@X+Xp.@.1.| d ",
"d q.w.w.$X6X6X$X^.$XOXi.A a.#X@X+X@X6XS.@X@X@XF.$X$XK g.6X$X5X6X6X$X6X~.#.q.Z z ",
"s X.+.o.3.7.i.i.i.a.!.<.k *.,.&.5.7.2.%.%.%.&.K 2.2.s ,.a.p.i.i.i.i.p.2.O.O.Z g ",
"y d +.<.!.<.C 1.s.XXXXXX6...( j | ;.j j j :.K :.4.:.j *.s.s.S.p. .C a.e.-.X.y h ",
"y C 1.q.!.&.C w.$X$X$X+X' _ G.G.) 7 [ H.L.qXL.P.=X=XqXA.>.OX+XOX .S $X~.$.+.y M ",
"s M -.1.~.2.s @.~.#X#X!. .h.J.U.{ $ H.Y.P.] ] Y.tXqXpXF.n !.OXp.m C OXp.@.o.r M ",
"s | o.o.6.2.,.!.7.i.8.<.p c.J.I.H.0.U.U.G.+ 6 P.yXtXpX%X7 .X.X7.3.<.6.=.o.o.d M ",
"d +.q.q.~.$X$X6X$X$X$X!.f _ J.U.J.I.U.yXU.G.P.Y.uXuXuXF.F $X&X$X$X$X$Xg.$.w.o.g ",
"s =.$.1.~.6X5X$X$X+X+X~.p T [ { { { A.A.A.A.A.A.D.D.D.j X.+X+X$X$X$X6Xs.$.w. .z ",
"d ..o.o.3.3.2.6.6.8..X>.l 0 @ @ q q 0 v G G 0 W.(.9 b  XQ.2.7.6.6.2.6.<. .o.C s ",
"y M +.1.~.3.n q.!.&X*XV x H x x E.R.H _.}.`.H 3XaXH }.aX|...s.p.| N ~.p.-.o.t M ",
"y C $.w.6Xa.| t.$X6X+XC * 1 5 1 1 5 a h r r r s M s 5 > y a.$XS.O.C !.~.$.@.y M ",
"s g +.@.~.2.d 1.s.~.!.M > E ! ~ ! ~ d.F.7X8XqX&X#X0.h.+ 8 2.OXp. .d 6.e.+...y M ",
"s o.o.o.3.7.!.oXoX!.a.,.5 Q / l.x.M.:.4.eXiXiXeXD &.Z.) M a.%X.X!.8.8.<.o.+.C g ",
"g q.w.r.6X6X$X7X6X$X$Xs.7 E l.z.N.9XwXwXrXK.K.N.m.8X9X` P 6X6X6X6X$X6X~.$.q.| g ",
"s -.#.q.+X@XOXOX~.~.OX2.< 4 ~ l.x.K.9X0XZ._ 4 E M.K.Z.#.D OXOXOX+X+X+Xp.@.1.| g ",
"s f 1 o o X ; , , S Q.C   @ E ~ z.v.x.n.b.c.9.0.N.B.v.' B 6.7.7.<.&.6.<.o...d g ",
"y B }.}.;X;X}.}.(.L M P 5.k 6 Q h.x.v.N.V.B.C.C.C.B.b.( 2 7.OXp.m C OXp.$.o.t h ",
"a J 1XsXdXfXsXsX2X/.  {.iXS.1 > E j.x.b.x.v.B.n.x.x.j.W J S.$XOX .S $X^.w.+.y h ",
"y B `.2X<X>X:X<X>XT.  {.iXqXa X W ~ z.x.j.j.z.x.k.h.R ` oX{.a.p.X.C i.e.O...y M ",
"a B `.<X:X[.[.>X[.L   oXeX&X9.p 5 W Q ^ j.~ ^ / Q Q Y @.%X4.j *.!.s.a.3.+.+.S g ",
"a V `.<X'.:X[.].].T.# 4.:.p ' ( . . U Y I O Y Y U : O 5 :.J u :.S.+X7X^.q.w.O.z ",
"a J `.<X].[.[.[.[.T.# t e 8 g g - 2 a ( d s f f 3 3 2 2 < u 4X3X*.s.OXe.@.q...s ",
"r c `.<X[.[.:X>X[.T.* % l H R.).`.`.;X4X4XsXaX;X_._.W.T.# 2 2X,Xr k 7.<.O.| s M ",
"r c `.<X[.:X[.[.[.L = < l x b H H L W.(.(. X XW.L H H x - e _._.a a 6.p.1.+.y M ",
"r c }.<X[.[.:X[.[.E.n X.%.3 $ $ $ $ $ X X . . $ $ $ $ < C %.H J  .C OXg.$.+.y M ",
"r c `.2X>X-X:X<X:XE.h &.X.z 0 8 = = % % & & % % % - 0 l S ,.V S X.S 6.1.o.| s M ",
"s J `.<X:X:X-X:X-XE.F 3.f x w x N D A A A A C A A i w q X.#X%XOX@XOXOXu.+.1.| i ",
"s P `.[._.].].'.'.E.F 2.j c x P OX!.!.~.XXXXXX~.XXK 9 J p.6X5X6X$X6X6X~.#.$.S g ",
"s j R.).T.E.E.E.E.H S &.s s M 6.XXs.OX!.!.~.!.~.XX&.% A s.s.s.s.XX!.s.e.+.=.Z s ",
"i g n t z l e t z J 8.a.6.5.8.s.7.a.6.&.7.a..X%X.X6.2.6.i.a.a.3...C 7.1.O...s M ",
"y k } ( } a a } } +.r.t.t.y.p.y.r.r.1.X.r.f.t.y.f.t.t.t.t.t.e.r. .C r.r.w.+.y M ",
"g g ......C C  .X.| | | | | | | | | | C Z ..| | | | | | | | | ..S d S  ...C s M "
};
