/* XPM */
static char *result[] = {
/* columns rows colors chars-per-pixel */
"40 40 222 2 ",
"   c #110D3B",
".  c #270339",
"X  c #34073A",
"o  c #2B183E",
"O  c #31233F",
"+  c #4E0C39",
"@  c #740231",
"#  c #62253F",
"$  c #001E43",
"%  c #291642",
"&  c #0A395B",
"*  c #372844",
"=  c #3C334A",
"-  c #39374D",
";  c #393D54",
":  c #461642",
">  c #771841",
",  c #452A46",
"<  c #5A2A49",
"1  c #44354C",
"2  c #473B53",
"3  c #513755",
"4  c #642E49",
"5  c #67374A",
"6  c #6D3B50",
"7  c #274A5F",
"8  c #364459",
"9  c #355369",
"0  c #365769",
"q  c #2C6473",
"w  c #494558",
"e  c #4B445A",
"r  c #5C4956",
"t  c #584459",
"y  c #544D5D",
"u  c #5D4C5B",
"i  c #6B464D",
"p  c #74474F",
"a  c #674955",
"s  c #634D5C",
"d  c #6B4D5D",
"f  c #764658",
"g  c #6C505E",
"h  c #685A59",
"j  c #7B585B",
"k  c #7D635B",
"l  c #474D62",
"z  c #475466",
"x  c #555564",
"c  c #555B6C",
"v  c #4F5D72",
"b  c #565E73",
"n  c #704D62",
"m  c #665362",
"M  c #6D5361",
"N  c #675B66",
"B  c #735362",
"V  c #7B5464",
"C  c #7B5C67",
"Z  c #755D68",
"A  c #7D5D6A",
"S  c #4D6677",
"D  c #546375",
"F  c #5D6875",
"G  c #60646C",
"H  c #79676B",
"J  c #646671",
"K  c #656C79",
"L  c #796B73",
"P  c #71737C",
"I  c #950037",
"U  c #AA002B",
"Y  c #A60336",
"T  c #C30032",
"R  c #912D49",
"E  c #863447",
"W  c #AF284A",
"Q  c #A7354A",
"!  c #B23A48",
"~  c #C72E45",
"^  c #C7394A",
"/  c #DB3B4A",
"(  c #9C444D",
")  c #854A59",
"_  c #885758",
"`  c #9A555A",
"'  c #A65D50",
"]  c #83625D",
"[  c #976A58",
"{  c #9B745F",
"}  c #835666",
"|  c #8A5263",
" . c #855967",
".. c #895867",
"X. c #835B69",
"o. c #8C5A69",
"O. c #915668",
"+. c #945D6B",
"@. c #9B5E6E",
"#. c #A25E6F",
"$. c #A35F70",
"%. c #876967",
"&. c #84616C",
"*. c #8B656D",
"=. c #986361",
"-. c #95636E",
";. c #9E606F",
":. c #8A746A",
">. c #9C7A66",
",. c #896770",
"<. c #956771",
"1. c #9F6270",
"2. c #946B72",
"3. c #9A6D74",
"4. c #8E777C",
"5. c #9B7276",
"6. c #947478",
"7. c #9E7578",
"8. c #9E7B7C",
"9. c #A0606F",
"0. c #AC666B",
"q. c #B56E61",
"w. c #A46271",
"e. c #A96472",
"r. c #A66875",
"t. c #AD6B76",
"y. c #A57677",
"u. c #A27679",
"i. c #AA757B",
"p. c #A37B7C",
"a. c #AC7C7E",
"s. c #B2797E",
"d. c #C9494D",
"f. c #CB5151",
"g. c #DB5855",
"h. c #E24B4E",
"j. c #E14E53",
"k. c #E45554",
"l. c #E85854",
"z. c #D66956",
"x. c #EA635A",
"c. c #EA665D",
"v. c #F1685D",
"b. c #D1726B",
"n. c #E96D65",
"m. c #EB7365",
"M. c #F17663",
"N. c #EE7F72",
"B. c #9F8A6D",
"V. c #9C8575",
"C. c #A08466",
"Z. c #BC8A77",
"A. c #C98865",
"S. c #D18B6D",
"D. c #F49D6B",
"F. c #EA8876",
"G. c #D6A775",
"H. c #F1A56F",
"J. c #F2AC74",
"K. c #EEB77A",
"L. c #F4B87A",
"P. c #5D6F82",
"I. c #636C80",
"U. c #637383",
"Y. c #6A798A",
"T. c #777B85",
"R. c #A67F80",
"E. c #AC7E80",
"W. c #B57E81",
"Q. c #B87F83",
"!. c #6B828F",
"~. c #758A96",
"^. c #798991",
"/. c #7791A0",
"(. c #7995A2",
"). c #7D9AA6",
"_. c #8A838A",
"`. c #9B8E8C",
"'. c #89939B",
"]. c #A58484",
"[. c #AC8383",
"{. c #AA8A88",
"}. c #B48384",
"|. c #BB8586",
" X c #B48986",
".X c #BB8887",
"XX c #BD8A89",
"oX c #BB918E",
"OX c #A49794",
"+X c #B59591",
"@X c #BFAE83",
"#X c #BDA79D",
"$X c #849CA3",
"%X c #809FAA",
"&X c #969AA5",
"*X c #85A0A7",
"=X c #83A2AB",
"-X c #88A5AE",
";X c #88A7B0",
":X c #8BABB3",
">X c #95A9B0",
",X c #97B3BB",
"<X c #A6AAB2",
"1X c #AAB5BA",
"2X c #B3B2B9",
"3X c #C18B8A",
"4X c #C1938B",
"5X c #DAB983",
"6X c #C9A698",
"7X c #D1A797",
"8X c #E5A595",
"9X c #D6B6A6",
"0X c #D6C58F",
"qX c #EBC589",
"wX c #F2CE8F",
"eX c #F8D695",
"rX c #EEC6B1",
"tX c #F7E3A1",
"yX c #B9BEC1",
"uX c #ADC4C8",
"iX c #BDCED1",
"pX c #C7C9CB",
/* pixels */
"s s s s s s s s s s s s s s s s s s s s s s s s s s s s s s s s s s s s s s s s ",
"u d ;.1.1.@.;.w.1.w.w.@.M +.w.;.9.9.9.9.1.w.w.@.w.w.M } @.@.;.w.;.;.9.;.9.+.u s ",
"s d o.+.+.+.+.+.+.+.+.+.d o.@.+.+.+.+.+.+.+.@.+.+.+.d } +.+.+.+.+.+.+.+.+...u s ",
"s s +.+.@.} M @.+.+.+.+.+.+.+.+.+.-.;.V o.@.+.+.+.+.-.+.+.@.+.+.+.d o.@.@. .s s ",
"s M w.w.|.i.g e.|.|.|..X|..XXX.X|.|.s.&.s.|.|.|..X.X|..X.X}..Xs.+.g a.s.#.@.s s ",
"u d @.1.}.u.a +.W. X}.}..X|. X.X.X}.}.&.5.Z.}..X|.}..X.XXX X|.s.O.s u.i.@...u s ",
"s V ....2.8.*.R.].R.8.5.A 2.7.8.].{.8.6.3.5.5.5.5.3.A -.7.p.].8.5.,.5.<.o...B s ",
"s @.w.w..XXX.XXX4X.X.X|.B i. X.XXXoXXX3X.X.XXX.X.XXXA R.3XXXoXXXXX3XXXs.@.w. .u ",
"d 1.w.e.|.XX3X3X}.|.}.5.g u. X XW.Q.}.|.}. X.X.X|.|.H a.3X.X.X.X.XXX3XQ.#.w.} s ",
"s } o.o.3.7.3.5.u.u.p.5.M &.2.2.A &.A H A &.5.5.,.A s *.y.u.u.u.5.5.5.<.o.o.V s ",
"s s +.;.a.5.n @.E.}. X[.6.k L :.:.%.:.k ] _ 2.2.j _ _ -.a.a.a.i.+.d a.i.@.o.u s ",
"u M 1.w.a.2.n r..X.X3X2.6.5X@X@X5XG.G.G.G.A.p p S.S.d.` }.|..X|.+.B .XQ.$.#.s s ",
"s s +.@.a.2.a +.E.}.}.V V.tX0X@XqX>.h A.L.K.i ] J.D.z.( u.E.}.i.} s i.i.@...r s ",
"s  .+.o.3.u.5.].p.u.R.n :.tXwXwXqX' < A.L.K.A.A.L.D.z._ 2.[.{.8.u.5.u.<.o.o.V s ",
"s +.w.1.Q..XXX3XXX.XXX,.H wXeXeXqXH.S.J.L.L.J.D.J.D.f.) E.XXXXXXXXXX3XQ.#.e.o.u ",
"s +.w.1.Q..XXX.X.X|..X<.s C.B.B.C.{ C.C.{ C.[ [ { [ E 6 a..X|.XXXX.XXXs.#.e.+.u ",
"s V ..o.3.3.,.2.,.R.4.R.OXY.& !._.9 S S S 9 0 0 7 & 7 z H 5.7.3.<.-.5.-... .B s ",
"s s @.1.}.3.n w.[.{.R.R.2X&XF <X1XK ~.'.~.F U.Y.S z c v t u.}.i...s }.a.@.+.u s ",
"s M w.e.3XE.V t..XXXE.d o # 6 s r a s a g g 4 4 4 4 < = t }.3X|.@.g p.W.#.@.s s ",
"s s o.+.i.<.d @.i.R.3.y 4 ! b.{.6X7X7X7X4X}.f.^ ^ ^ W 5 y 5.E.u.+.s 5.r.+.} u s ",
"s ..+.+.u.R.E.+X+X[.R.H 6 n.i.e 6XrXrXrXV.H b.n.j.h.! E 2.[.+X{.[.a.p.3.+.@.} u ",
"s w.w.e..XXX3X.X.X}.|.,.E 8X9Xb.z.m.m.8X9X9X7XN.l.j.W 6 a.XXXXXX3X3X3XQ.@.$.} s ",
"s @.w.w.Q..X|.|.}.E.}.Z E m.8Xm.( , ( b.F.F.N.l.h./ E ; p.|.}.}.Q.Q.Q.i.@.@...u ",
"s B  ...2.2.A ,.3.R.{.L ) x.l.n.b.q.z.m.n.x.x.l./ Q * $ 3 ,.B < % + X X X : r u ",
"u d 1.w..Xu.n e.|.XX XN 6 g.v.M.M.M.M.n.v.n.l.f.Q R p 7.4.y J ^.&X$X<X<X&X'.L a ",
"s M w.@.Q.*.V t.|.}.p.L ) ^ l.l.c.v.l.k.n.l.h.W < : 5.rX#X  D >XuXuXiXiXuX1XP r ",
"s s ..o.5.*.B <.p.p.V.`.0.T d.! k.k.j./ h.j.^ R , 1 oXrX#X  v ).:X;X;X;X,X%XJ r ",
"s +.@.;.i.}. X+X8.h %.{.=.Y Q Q / / ^ ~ / ^ E 4 6 =.Z.6X#X% v ).;X=X).).:X$XJ s ",
"s o.w.w.}..X|.s.6.G h %.6 + > @ Y U @ @ U I +   5 [ p N `., c (.).).=X(.-X*XJ r ",
"s +.;.@.a.}.s.%.&XyXJ , e e y t n } N d _ d l 2 u m w 8 e O D (.=X).=X).;X$XJ r ",
"s g ..o.3.*.j i '.,Xb % D Y.~.~.$XyXpX1X1X>X'.~.~.!.K z - O D (.=X%X%X%X;X%XF r ",
"s M w.@.Q.,.d p T.~.c 1 l v c G K ^._.P !.P F F D x z l w , D (.=X%X*X%X;X*XJ r ",
"u g w.w..Xu.f +.L b L &.2 * O O * . . o o o * O * O 1 H *.d F (.=X%X%X).;X$XJ r ",
"s d  ...3.6.L -.X.n &.} y 0 8 - - = - = = = = = ; 9 l V 3.B I.).:X=X%X;X,X%XJ r ",
"s +.$.1.W.oX4X X}.s.}.3.z q x C A H C C C C B B x q 0 o.E.X.U.).=X=X=X).;X%XK t ",
"s w.e.w..XXX.XXX.X.X}.2.y 7 m Z.}.E.}.}.}.}.}.}.6.c w 2.}...I.~././.)./.$X%XJ t ",
"s +.+.+.i.E.W.a.i.R.].3.r t C R.[.E.E.E.E.R.a.R.u.C 1 &.p.&.c P.U.P.U.P.Y.Y.N s ",
"s s ..+.u.,.d -.u.{.+XR.u.3.p.R.u.p.u.X.3.R.[.+X{.7.3.8.p.u.Z u y e u u y t t s ",
"u d w.w.w.X.V t.t.t.t.t.t.t.t.t.t.r.1. .t.t.t.t.t.t.t.t.t.r.@.| f a | | | ) t s ",
"M m X.X.X.C M X.X.} X.} A X.X.X.X.X.X.B A  .X.X.X.X.} X.} X.X.&.X.M A X.o.A m m "
};
