/* XPM */
static char *result[] = {
/* columns rows colors chars-per-pixel */
"40 40 213 2 ",
"   c #060039",
".  c #19003D",
"X  c #2F0038",
"o  c #280C45",
"O  c #2D1943",
"+  c #311A45",
"@  c #35264A",
"#  c #382F53",
"$  c #373853",
"%  c #59154D",
"&  c #57364D",
"*  c #483354",
"=  c #563B55",
"-  c #72314E",
";  c #65385A",
":  c #33405A",
">  c #084265",
",  c #355670",
"<  c #276679",
"1  c #4D475D",
"2  c #58475A",
"3  c #664E50",
"4  c #654859",
"5  c #794859",
"6  c #7A655F",
"7  c #4C4B62",
"8  c #42536D",
"9  c #49556D",
"0  c #58566A",
"q  c #455E75",
"w  c #565E74",
"e  c #655362",
"r  c #6A5564",
"t  c #6E5967",
"y  c #67586B",
"u  c #6E5A68",
"i  c #725766",
"p  c #7E5261",
"a  c #745867",
"s  c #735C6A",
"d  c #7B5D6A",
"f  c #46627A",
"g  c #596477",
"h  c #7D616D",
"j  c #73696E",
"k  c #646676",
"l  c #656878",
"z  c #766774",
"x  c #7A6572",
"c  c #776875",
"v  c #7B6975",
"b  c #7E6F7A",
"n  c #6D727F",
"m  c #7F707A",
"M  c #94003A",
"N  c #9D2C3E",
"B  c #A52C3C",
"V  c #CC2739",
"C  c #873A4C",
"Z  c #833553",
"A  c #933750",
"S  c #AB384B",
"D  c #B1354E",
"F  c #C63B46",
"G  c #D33C43",
"H  c #9D4551",
"J  c #80525F",
"K  c #A74348",
"L  c #BE5D54",
"P  c #845864",
"I  c #835E6B",
"U  c #925F6A",
"Y  c #82626E",
"T  c #8B616E",
"R  c #866B6D",
"E  c #95696F",
"W  c #9A726D",
"Q  c #846570",
"!  c #8D6571",
"~  c #846A73",
"^  c #8C6C73",
"/  c #856E7A",
"(  c #956673",
")  c #9C6773",
"_  c #946974",
"`  c #9B6975",
"'  c #926F79",
"]  c #9F6D78",
"[  c #8A7975",
"{  c #83717C",
"}  c #937177",
"|  c #997877",
" . c #947379",
".. c #9B747A",
"X. c #9D7A7D",
"o. c #A36C69",
"O. c #A57765",
"+. c #A06775",
"@. c #A16A76",
"#. c #A56E79",
"$. c #AA6E7A",
"%. c #AA7E77",
"&. c #A5737B",
"*. c #AC717C",
"=. c #A27B7E",
"-. c #B1737D",
";. c #B47D7B",
":. c #C64A52",
">. c #D95954",
",. c #E45A54",
"<. c #D2655A",
"1. c #D97655",
"2. c #E8655A",
"3. c #EA6D5D",
"4. c #ED715F",
"5. c #C87166",
"6. c #EB7562",
"7. c #ED7964",
"8. c #F27F66",
"9. c #A7827B",
"0. c #C49169",
"q. c #C7986E",
"w. c #D6946A",
"e. c #D78479",
"r. c #C59B71",
"t. c #ED846E",
"y. c #EB8C6F",
"u. c #F28268",
"i. c #E58A70",
"p. c #F58D75",
"a. c #CBAC7E",
"s. c #D5AA78",
"d. c #EAA975",
"f. c #EEB87C",
"g. c #FEB97B",
"h. c #2E6F81",
"j. c #576883",
"k. c #5A6B81",
"l. c #5A798B",
"z. c #616D82",
"x. c #6E6F83",
"c. c #697588",
"v. c #747685",
"b. c #7C7D8A",
"n. c #617E90",
"m. c #897984",
"M. c #9F7D80",
"N. c #A57E81",
"B. c #AB7D81",
"V. c #B47C82",
"C. c #768997",
"Z. c #7A8C95",
"A. c #7E8C96",
"S. c #829198",
"D. c #9E9D9E",
"F. c #A68283",
"G. c #AC8485",
"H. c #AB8887",
"J. c #A88789",
"K. c #AC8A8A",
"L. c #B38486",
"P. c #B88487",
"I. c #B18887",
"U. c #B28688",
"Y. c #BA8688",
"T. c #B38A8A",
"R. c #BC8C8C",
"E. c #B6918D",
"W. c #BD918E",
"Q. c #AB8F90",
"!. c #AE9391",
"~. c #B39492",
"^. c #BE9491",
"/. c #B99B97",
"(. c #BC9D99",
"). c #AFA38E",
"_. c #BCA196",
"`. c #BAA29D",
"'. c #8B9BA5",
"]. c #829CAB",
"[. c #979CA4",
"{. c #8AA5B2",
"}. c #8EABB6",
"|. c #90ACB6",
" X c #95B2BB",
".X c #99B5BE",
"XX c #A5A7AD",
"oX c #A6B3BB",
"OX c #C18F8E",
"+X c #C1918F",
"@X c #C49592",
"#X c #C59994",
"$X c #C99A96",
"%X c #C39D99",
"&X c #C99E98",
"*X c #E59381",
"=X c #CCB386",
"-X c #CCA29A",
";X c #D2A496",
":X c #E6A695",
">X c #CFB7A8",
",X c #E2B6A4",
"<X c #D1C494",
"1X c #F0CA8D",
"2X c #FBD99A",
"3X c #E2C0AF",
"4X c #F5D1BB",
"5X c #F9E5A8",
"6X c #9DBAC1",
"7X c #A4BAC2",
"8X c #BBC3C7",
"9X c #BDCDD2",
"0X c #C5D1D6",
/* pixels */
"{ { { b b b b b m b b b { b b b b { v m m b b { b b { { b { b b { b b b b b / m.",
"r r ( ) ) ) ) ) ) ) ) ) i ( ] ) ) ) ) ) ) ) ) ) ) ) i I ( ( ) ) ) ( ) ) ) T e z ",
"u s @.&.&.*.$.$.*.#.$.#.d ] $.#.&.#.$.&.*.$.&.$.#.#.d _ *.@.$.#.#.$.&.$.$.( r v ",
"u t ( ` ) T d ` ( ` _ ( ( ( ( ` ) ) _ T ( ( ( _ ` ( _ ( ` ` ( ) _ d ( ( ] Q e v ",
"u s *.*.Y.G.d -.R.R.R.R.OXR.R.W.R.R.I._ U.R.R.R.R.R.OXR.R.R.R.V.( I Y.V.$.] r v ",
"u a #.$.@XI.i @.W.#X@X@X@X#X#X#X#X@XR.} G.@X@X@X@X#X#X#X#X#X#XP.( s T.L.$._ e v ",
"u d ( ( X.M.Q M.J.J.F.=.| =.F.F.K.J.F. .=.F.N.N.N.N. .=.F.F.K.N. .^ N...( ! a v ",
"u ] $.$.T.#XW.#X-X^.^.R.d G.W.W.%X%X^.#XR.W.W.W.W.R.h G.@X^.%X/.^.@X^.V.@.$.I z ",
"a #.-.*.@X@X@X@XOX@XR.F.Y J.W.+XOX@X@X#X#X#X@X#X@X#X^ R.$X@X@X#X@X@X$XP.$.*.I v ",
"u _ @.] B.I.U.I.G.T.K.N.d N.R.K.I.I.U.U.G.I.I.K.U.G.d N.T.G.I.I.I.U.I.&.] ] I z ",
"u t ( ] G.X.d @.G.T.E.T.E.`.R.G.G.I.N.' B.R.E._.(.E.K.G.G.G.G.B.( d J.&.` ! e v ",
"u s $.*.R.M.d -.@X@X#X@X@X#XW.I.T.^.K.' T.T.T.T.W.R.@X#X#X@X@XOX) R #XP.-.] e z ",
"u t @.$.T.=.r +.R.^.^.W.+XW.I.! Q ..F.d R ^ ^ | X.R F.^.OXR.^.G.I d R.P.$._ e v ",
"t Y ( _ =.N. .J.F.F.J.N.^ X.U L w.O.; w.s.a.a.=X).=X^ ^ G.K.!.N.=. .N...( ! a v ",
"u ` *.$.R.+X@X%X@X@X@XR.~ K.o.1.g.0.5 1Xf.6 O.1X<X5X[ ..@X@X$X@X#X+X@XP.$.-.T x ",
"u ` *.#.R.@X@X@X#X@X@X@X^ R.] 1.g.f.d.1Xf.0.0.2X2X5X[ N.$X@X@X@X@X@X#XP.$.-.( z ",
"a ! ] ( B.F.G.G.G.J.T.J.h 9.P K 0.q.0.r.9.r.r.a.a.a.3 ' I.G.I.J.G.F.G.&.) ` d z ",
"u t ] +.U.N.a @.I.^.(.(.W.F.k , > , f q C.l.g '.g c.XX9.G.U.K.-.T h T.B.@.! e b ",
"u d *.V.@XT.T V.@X@X@X@X#X| 9 w 8 k.z.g Z.v.k [.C.C.D. .W.@X#XR.( h W.T.-.@.e v ",
"u u @.#.R.B.a #.R.R.^.T.@X .@ A K B K 9.9.9.9.| W N X R R.R.W.P.) a G.-.@.( e v ",
"u Q ( ( =.=.9.!.!.J.F.=.R ' P :.,.3.OXX.>X4X4X_._ *X5 / G.J.!.K.F.X.G.&.) ( d v ",
"u @.*.*.+X#X#X-X-X$X&X@XR E.T D 2.7.:X>X,Xi.e.5.;X:X- N.@X@X%X#X#X@X+XU.#.*.I z ",
"a @.-.*.+X+XL.] E ) _ I h L.1 - >.2.t.p.p.<.2 5.p.t.J F.@X@X+X#X@X@X@XP.#.*.I v ",
"u ! ` ( =.=.{ x.b.v.v.l 0 r t 2 S >.3.6.t.y.i.y.8.7.4 h G.9.G.F.=.=.G...( ` d v ",
"u u ] #.T.X.[.9X0X0X9X7Xq j 3X9.% K 2.4.4.4.u.4.4.>.p m.G.T.Y.%.I d T.V.#.! e v ",
"u d *.*.R.| Z.6X X}. X}.8 j 4X;X# - L ,.,.,.3.,.:.V ;.).E.#X&X^.( ~ $XY.-.@.r v ",
"u u _ ` B.^ Z. X{.}.}.{.9 v `.%.o.& - D F S G D A M #.9.3 ^ T.V.( d K.-.@.! e v ",
"u ! ` ` N.| S. X{.}.{.{.g 2 0 2 P * # C C & H Z ; * 2 e D.D.| K.H.N.F.&.) _ d v ",
"u ) -.&.R.G.S. X}.}.}.{.g O 8 n.C.A.].oXoX8X7X'.C.C.g o  XD.W #X@X@X#XP.$.V.( z ",
"t ] $.#.R.G.S. X{.}.}.{.g = y 0 0 g l n v.b.m.l g w 7 2 C.C.%.@X@X@X@XP.$.-.T z ",
"u Y _ ` =.} Z..X|.}.|.}.z.d ~ 1 $ @ + X .     O @ : 2 Y y Q F.X.X. .B...( ( s v ",
"u t @.@.I._ Z.6X|.|. X}.x.=.9.g < y e 0 s z s u y h.k G.T.T.W.U.( a G.B.@.( e v ",
"t s *.*.R.X.Z.}.A.}.].].c.&.U.k n U.R.'  .G.T.R.X., / OX#X@X#X+X#.Q R.P.$.@.r v ",
"u t ` @.L.X.k c.j.l.z.j.k &.N.d ..T.U.' =.G.T.W.M.u X.I.I.U.T.B.( d U.N.] ! e v ",
"t ( @.] B.~.M.d Y I I I a N.T.T././.T.K.I.I.I.G.I.G.h =.T.~.(.E.K.I.G.&.) @.I c ",
"t #.-.*.+X#X@X@X+X+XR.T.Q N.#X@X#X#X#X@X@X@X@X$X@X#X^ R.$X#X#X#X#X#X$XY.#.*.I c ",
"a ] *.$.R.^.@X@XR.W.E.N.s G.@X^.^.^.W.@X+XW.W.R.W.W.Y I.^.R.W.W.@X@X@XV.#.*.T z ",
"u d ( _ =.=.^ X.N.Q.~.G. .N.K.F.N.J.F...N.J.K.!.K.9.' N.F.F.B.N.' ^ N...( ! i v ",
"u u *.#.B.} d *.V.W.R.P.Y.P.Y.P.P.V.N.' V.Y.Y.^.R.P.P.P.P.P.P.B.T d P.V.$._ e v ",
"u a ` ] @.T I @.@.@.@.@.@.@.@.@.@.) ) Y ] @.@.+.@.@.@.@.@.@.) ] ( d ] @.#.( r v "
};
