/* XPM */
static char *result[] = {
/* columns rows colors chars-per-pixel */
"40 40 166 2 ",
"   c #543E55",
".  c #593E56",
"X  c #4D4A58",
"o  c #5D4357",
"O  c #5D4857",
"+  c #544758",
"@  c #5B465A",
"#  c #544C5A",
"$  c #5E4C5B",
"%  c #5E505E",
"&  c #624459",
"*  c #6D475B",
"=  c #634D5C",
"-  c #6A4E5E",
";  c #71475C",
":  c #714E5E",
">  c #62515F",
",  c #6B515F",
"<  c #71515F",
"1  c #5D5664",
"2  c #5E5867",
"3  c #5B5E6C",
"4  c #655361",
"5  c #6D5260",
"6  c #655A67",
"7  c #645B68",
"8  c #6E5B68",
"9  c #745361",
"0  c #7C5563",
"q  c #745863",
"w  c #7D5964",
"e  c #725C69",
"r  c #7D5D6B",
"t  c #5C606E",
"y  c #4F6774",
"u  c #5C6472",
"i  c #536A76",
"p  c #5E6977",
"a  c #566F7C",
"s  c #5C6F7D",
"d  c #4F707D",
"f  c #5C717E",
"g  c #60606D",
"h  c #7E646F",
"j  c #626775",
"k  c #636A77",
"l  c #616E7B",
"z  c #825665",
"x  c #8B5665",
"c  c #845967",
"v  c #8B5966",
"b  c #8C5768",
"n  c #845D69",
"m  c #8C5A69",
"M  c #945967",
"N  c #985769",
"B  c #945C6B",
"V  c #9A5E6C",
"C  c #A15F6E",
"Z  c #A15F70",
"A  c #84616E",
"S  c #8C646E",
"D  c #92666F",
"F  c #9D606E",
"G  c #8A6470",
"H  c #8E6C73",
"J  c #966770",
"K  c #9C6470",
"L  c #946C72",
"P  c #9B6D73",
"I  c #9C7275",
"U  c #967478",
"Y  c #9C7578",
"T  c #9D787B",
"R  c #A2616F",
"E  c #A8606F",
"W  c #A46271",
"Q  c #AA6473",
"!  c #A46C73",
"~  c #AB6B73",
"^  c #B16771",
"/  c #B36C74",
"(  c #BE6E76",
")  c #A27376",
"_  c #AD7477",
"`  c #A37579",
"'  c #AB757B",
"]  c #A57B7A",
"[  c #AC7B7D",
"{  c #B07477",
"}  c #B4777E",
"|  c #B17A7F",
" . c #CB6B77",
".. c #C96F79",
"X. c #D26F7A",
"o. c #C7767B",
"O. c #CE747C",
"+. c #A3817D",
"@. c #AC807D",
"#. c #B1867F",
"$. c #547580",
"%. c #AD7F80",
"&. c #B57E81",
"*. c #B87F82",
"=. c #A58480",
"-. c #AD8281",
";. c #A68984",
":. c #A88D87",
">. c #A68F88",
",. c #B48483",
"<. c #BB8385",
"1. c #B48B84",
"2. c #B98A87",
"3. c #BF8788",
"4. c #B08F88",
"5. c #BD8B89",
"6. c #A7908A",
"7. c #A99089",
"8. c #BA9087",
"9. c #B6938E",
"0. c #BA948B",
"q. c #B4988F",
"w. c #B9998F",
"e. c #BF9590",
"r. c #B59C92",
"t. c #B99E93",
"y. c #C28C8B",
"u. c #C6918E",
"i. c #C9968C",
"p. c #D4958C",
"a. c #DA958D",
"s. c #D69A8F",
"d. c #CA9490",
"f. c #D29D90",
"g. c #E28C8A",
"h. c #EB968F",
"j. c #E59E93",
"k. c #EB9890",
"l. c #C3A196",
"z. c #C8A79B",
"x. c #D5A192",
"c. c #DAA696",
"v. c #DDA997",
"b. c #D3A89B",
"n. c #DCAA99",
"m. c #E6A396",
"M. c #E7A798",
"N. c #EFA699",
"B. c #EFA99A",
"V. c #F3A599",
"C. c #F3AC9C",
"Z. c #F8AC9D",
"A. c #EAB49E",
"S. c #F9B49F",
"D. c #EDB6A0",
"F. c #E7BDA6",
"G. c #FAB5A1",
"H. c #F4BDA5",
"J. c #FDBAA5",
"K. c #E9C5AE",
"L. c #FCC4AA",
"P. c #FEC9AE",
"I. c #EBCBB3",
"U. c #FDCDB1",
"Y. c #FED1B5",
"T. c #FFD3B8",
/* pixels */
"= = = = = = = = = = = = = - , 5 5 5 5 = > , , , , , = , = = = = = = = = = = = = ",
"$ - B W K Z V W K V Z K : m K N M M V V F M M N B F < 0 F B V W F F Z F W B $ = ",
"= - m V V V V B M V F m q z m H H G G m c D H D S S < w m F V B V V B V B m $ = ",
"= = m B B c 9 B D B ; L c.] n.I.K.F.H.x.] A.I.K.H.v.[ x.` * m F b 5 c V B b = = ",
"$ 9 W W *.` 9 W } ) l.U.L.1.H.L.L.L.P.A.0.L.L.L.P.H.8.H.U.z.P ' B 5 ` } Z V = = ",
"$ - V K <.Y = V P l.T.L.N.~ j.C.C.V.S.a.{ V.C.B.Z.j._ j.L.T.b.K V = I [ V m $ = ",
"= 9 m b P U G L T L.L.k.X.x M V B M N m z M M M N B x  .h.L.U.` G L P J b m 9 = ",
"= F Z W ,.5.2.%.i.L.V.O.z 9 D 9 X # # # % # # # # c 0 < ..V.L.f.T y.2.&.V W b $ ",
"= Z Z Q <.y.<.P A.L.g.x X - w 9 = , > , = , , , , w 0 # 0 g.J.D._ ,.u.&.W W b $ ",
"= c B m P ` G +.P.J.o.- 0 w 9 = = = = = = = $ = > x F B = ( J.P.1.A ] J m m 0 $ ",
"= = B V | I & I A.m.F < K F m = = > = = > = 2 $ = m F R < B m.A.Y o %.' V B $ = ",
"$ 5 F W [ L - w +._ < = 0 z w , = = > = = = t > < 0 w 0 = < ) @.0 5 2.<.Z R = = ",
"= = V V %.P . T L.Z.~ y r R W z $ > = = = = 2 , V W W w i F C.L.@.  %.' F m $ = ",
"= z m m P T m >.Y.S._ a A R Q m O > = = = = 1 , F Q R n f P G.U.r.c ` J b b 0 $ ",
"= B W W &.y.&.:.U.G.) * B F F 0 $ = = > = > 2 = B R R F : V G.P.w.} u.&.W Q B $ ",
"= B Z K &.3.%.;.P.S.~ - m z w 9 = = = = = = 3 4 = 5 , , $ V G.P.9.%.y.&.Z W B $ ",
"= w m m P I n +.L.H.~ x R R F F , = = = = = t % , c c v < F S.L.1.r Y D m m : = ",
"= = V F &.` o ` P.G.Q m ~ ! E F , = = = = = t % < ~ R ^ F F S.L.@.. ,.| V B $ = ",
"$ 5 Z Q 3.@.9 c #.[ 0 9 x z z 0 = > = = = = t > < z z c < < ] #.n = ] &.Z F = = ",
"= = B B ] L = J v.s.F z B B , O = = = = = = t > = , m F m M s.v.P @ P ! M m = = ",
"= b B B I ] T :.Y.J.~ M Q Q c > > = = = = = 2 > % z Q ^ F R S.Y.r.J &.P m B z $ ",
"= Z W Q 3.u.*.>.U.S.! 0 F m , g k = = = = = , l > , m N 0 F S.P.r.%.d.&.Z W b $ ",
"= B Z K &.<.[ ;.U.G.Q - m 0 = t l = = = = = , l % = % > # N G.P.9.' 2.%.V W m $ ",
"= 9 b m P L 9 +.P.G.~ m ^ M = t l = = = = = g s > v F V , D S.P.4.: Y K m c - = ",
"$ 5 V W <.` o [ P.J.~ x Q B = t l & = = = = 7 s % M W W 9 F G.P.-.+ <.&.F B $ = ",
"$ 5 W W &.L * L c.p.M > , , = t l = = = = = 6 f % < w w , x i.v.L - ,.<.Z F = = ",
"= - b m P L 5 n #.#.z > z 0 & t l = = > = & 6 s > M F R B c [ #.c - P P B c = = ",
"= m V B ` ,.=.=.P.S.Q - Q D & t k = = = = = 6 s > V Q W B R G.P.5.` ,.) M F b $ ",
"= B W W *.y.&.6.Y.S.! O S < O t l = = = = = 7 f $ 0 m m 0 F S.U.t.%.d.*.Q Q V $ ",
"= B F B ' ,.` ;.Y.G.~ * M M < t j = = = = = 6 p = w B m * F S.P.9.) 2.) V V m $ ",
"$ - b B I L * =.P.S.) u S E z $ , = = = = = = 1 = V Q m j J S.P.4.o Y K b c = = ",
"$ 5 F F &.L o +.P.S.{ d h E z $ = = = = = = 2 = = V Q r $.P S.P.1.. P %.Z V $ = ",
"$ - F W <.` & Y L.C.R X w c - $ = = = = = = t = = < v < # B C.L.] O ,.*.Z V = = ",
"= 5 b m P U h w ] ) z z B B B < = = = = = = t % < S M F b 0 ) ] c q I J m c - = ",
"= B Z K &.e.9.Y A.M.R B ~ Q Q x $ = = = = = > % w Q E ~ M B m.D.[ %.2.' V Z m $ ",
"= W W Q <.y.} 7.Y.J.~ z F B F 0 = > = = = > t % = < < 9 = V J.U.t.[ d.*.Z Z c $ ",
"= m V V ) %.P ;.U.S.Q + , = = = = > = = = = t > 9 0 0 0 , B G.U.q.P -.! B B x $ ",
"= 5 m B Y H = P J.Z.R , D V m = = > = = = > 3 , C ~ Q ~ D V V.J._ @ ` ! B m = = ",
"@ = C Z W z - m / ^ z , m m x = > = = = = = 2 > z x x x z z ^ / x = W Q W V $ O ",
"8 e n G G r e 5 $ % 4 4 > > > , > , > > > , > > > > > 4 = 4 $ $ 4 8 h A G r 8 8 "
};
