/* XPM */
static char *result[] = {
/* columns rows colors chars-per-pixel */
"40 40 219 2 ",
"   c #002C4D",
".  c #0E2A4F",
"X  c #02344E",
"o  c #0B344E",
"O  c #13364E",
"+  c #14384F",
"@  c #002F50",
"#  c #1F2A50",
"$  c #1F3550",
"%  c #24354F",
"&  c #28364F",
"*  c #33364F",
"=  c #3A364F",
"-  c #36384F",
";  c #3D2B51",
":  c #243750",
">  c #2B3550",
",  c #233950",
"<  c #2D3951",
"1  c #373651",
"2  c #353B51",
"3  c #3D3B51",
"4  c #4B2D4F",
"5  c #44364F",
"6  c #48374F",
"7  c #4E384F",
"8  c #57374F",
"9  c #5C394F",
"0  c #452D51",
"q  c #4E3552",
"w  c #423A51",
"e  c #4B3951",
"r  c #513552",
"t  c #593652",
"y  c #533B51",
"u  c #5C3B51",
"i  c #6A344F",
"p  c #6B3B4F",
"a  c #75374F",
"s  c #7C3B4F",
"d  c #693451",
"f  c #633B52",
"g  c #6C3C52",
"h  c #733651",
"j  c #743C52",
"k  c #7C3D52",
"l  c #474053",
"z  c #5C4454",
"x  c #564C56",
"c  c #644655",
"v  c #6A4654",
"b  c #6A4956",
"n  c #6F4F58",
"m  c #764353",
"M  c #7C4352",
"N  c #7E4B55",
"B  c #744E58",
"V  c #73555C",
"C  c #735D5E",
"Z  c #76625F",
"A  c #5F5B61",
"S  c #765865",
"D  c #77636C",
"F  c #7C746F",
"G  c #7E7F79",
"H  c #90344A",
"J  c #803E50",
"K  c #8B3B54",
"L  c #913B55",
"P  c #993D52",
"I  c #A33F52",
"U  c #834352",
"Y  c #874855",
"T  c #844B55",
"R  c #8B4D55",
"E  c #984354",
"W  c #904E56",
"Q  c #944C59",
"!  c #8D5157",
"~  c #87545A",
"^  c #8C555A",
"/  c #945257",
"(  c #945459",
")  c #9B5459",
"_  c #93585A",
"`  c #9A5C5D",
"'  c #A2424F",
"]  c #B6434F",
"[  c #B8444F",
"{  c #A24450",
"}  c #BB4A51",
"|  c #A4565A",
" . c #A95459",
".. c #A55A5C",
"X. c #AB5B5C",
"o. c #BD5153",
"O. c #B55C5C",
"+. c #AE615D",
"@. c #B4635E",
"#. c #BA645E",
"$. c #BC695F",
"%. c #9C5F60",
"&. c #925F68",
"*. c #87616A",
"=. c #94676C",
"-. c #826670",
";. c #866C74",
":. c #937076",
">. c #9B7472",
",. c #997779",
"<. c #957B7D",
"1. c #A86864",
"2. c #B46362",
"3. c #BD6662",
"4. c #B46964",
"5. c #BD6C63",
"6. c #B36F68",
"7. c #A57469",
"8. c #BA7569",
"9. c #A17C7A",
"0. c #C4645D",
"q. c #C8645C",
"w. c #CC695E",
"e. c #CC6763",
"r. c #C36B63",
"t. c #CB6E65",
"y. c #CB6F68",
"u. c #D26C66",
"i. c #C57165",
"p. c #CB7165",
"a. c #C67068",
"s. c #CB7269",
"d. c #C77C6E",
"f. c #D3756A",
"g. c #D77569",
"h. c #D57969",
"j. c #DB7B6D",
"k. c #DE7E70",
"l. c #E27D6E",
"z. c #80827B",
"x. c #A98272",
"c. c #A2847B",
"v. c #A9897A",
"b. c #B78B76",
"n. c #A9927C",
"m. c #C48775",
"M. c #CB8573",
"N. c #D38C75",
"B. c #D58C76",
"V. c #C7947A",
"C. c #CC9B7E",
"Z. c #DD957A",
"A. c #E38371",
"S. c #EB8572",
"D. c #E68C76",
"F. c #EC8C76",
"G. c #EF9279",
"H. c #E59B7F",
"J. c #ED9A7E",
"K. c #F0967C",
"L. c #968583",
"P. c #988786",
"I. c #978985",
"U. c #97938E",
"Y. c #98918B",
"T. c #989792",
"R. c #AA8685",
"E. c #A28E83",
"W. c #B78C88",
"Q. c #A49586",
"!. c #A29A8D",
"~. c #B69C83",
"^. c #A39E92",
"/. c #A6A698",
"(. c #B1AA95",
"). c #C59B8F",
"_. c #C49E92",
"`. c #E39D81",
"'. c #F39E81",
"]. c #CAA787",
"[. c #D1A384",
"{. c #D1AC8B",
"}. c #C5A595",
"|. c #C5AD9A",
" X c #C8B09E",
".X c #D0B291",
"XX c #D1BD9C",
"oX c #EDA182",
"OX c #ECA985",
"+X c #ECAC89",
"@X c #F0A685",
"#X c #F1AA87",
"$X c #F2AC89",
"%X c #EEB18B",
"&X c #F4B38D",
"*X c #F5B78F",
"=X c #F6B790",
"-X c #F5BC92",
";X c #FBBC92",
":X c #C6B8A4",
">X c #C7BEAC",
",X c #D1BFA1",
"<X c #F7C295",
"1X c #FCC596",
"2X c #FBC897",
"3X c #F6C698",
"4X c #FBC698",
"5X c #F7CB9B",
"6X c #FBCC9B",
"7X c #FED19E",
"8X c #C7C0AF",
"9X c #D2C5A9",
"0X c #C6C4B4",
"qX c #FFCFA0",
"wX c #FED3A2",
"eX c #FDD8A7",
"rX c #FCD9AB",
"tX c #FCDDB1",
"yX c #FFE3B4",
/* pixels */
"P.}.>X>X XE.<.).|.8X>X X>X>X X|.).9.9._.>X:X X}.W.<.W.}.:X0X>X>X}.R.,.}.>X0X XR.",
"9.2XeXwX7XC.3.2X6XwXwX6XwX7X6X6X2X@.a.6XwX6X6X6XOXH OX6X6XeXwXwX7XB.7.6XwXwX7X[.",
"c.7X1X1XqX[.2.-X5X5X5X6X5X2X6X5X;X1.8.-X5X6X5X5X`.Q `.5X5X5X5X4X2XN.x.6X5X<X7X{.",
"=.*X5X5X1Xb.2.G.&X&X&X&X&X&X&X&XG.2.5.G.&X&X&X@Xl.%.k.'.&X&X&X&XK.g.=.-X2X6X1Xm.",
"&.S.'.`.G.2.| f.p.y.y.s.y.s.y.y.f.) | f.y.y.y.s.r.U t.s.y.s.y.y.f.3.) S.`.'.G.5.",
"V  .| ....Y $ 2 2 2 w 3 w 3 3 3 3 1 = w 3 3 w 3 3 = = 3 w 3 3 3 2 O g ....| ..R ",
"*.M.M.s.3.5 q g d u r L { ' K t L { E K t L { ' K t K I { L r u g f @ | y.d.B.1.",
"9.6X2XJ.j.c r k M j u U k s k z k k J k u M k s M u k k J M y j k g : y.G.=XwX[.",
"E.qX5X=Xg.c X f 3.a.i.i.R ) i.i.+.m i.i.r.p./ / s.a.@.m $.i.i.r.K : , 3.$X5XwXXX",
"!.eX4X-Xj.z X f 2.5.5.5.U W $.i.X.p @.5.5.$.T R 5.r.X.p @.5.5.#.k : , r.$X5X6X{.",
"/.tX4X-Xj.z t J R ! 9 ( _ _ _ m v / _ ! 9 ! _ _ ! 9 R _ _ ! f T U j , 3.$X4XwX9X",
"!.wX5X-Xh.z K [ w.r.U p.h.h.h...) h.h.w.N p.h.h.p.T t.h.h.w.T 0.o.I < 3.$X5XqX,X",
"c.6X5X$Xj.z r m T T 9 R ~ ~ ( M j ~ / R p R ! ! T 8 N ~ ^ T f M m f $ a.'.1XwX[.",
">.$X@XB.g.u X d O.i.p.#.h X h s d   0 s U j 5   X 3 o 4 X.i.i.0.K : : 3.l.`.=Xm.",
"S E Q %.Q q , t X.$.5.@.g : w u b b c 7 * y z c 9 w 2 r | $.5.$.k , = U %.Q E ~ ",
"=.oX`.h.s.u u k R T 9 T J g 1 r.A.j.A.) 9 u.h.h.t.c e s U ! 9 N U h : 2.g.Z.+X8.",
"c.6X6X@Xj.z K [ w.r.T 0.} P 3 s.S.OX2Xb.V 1X=XD.A.V h [ o.t.T 0.o.I > a.'.-XwX{.",
"E.7X5X-Xj.z r h T T u U k u 3 p.OX5X6Xn.C 5X5X*Xj.B 5 j k T f M k d , 3.$X5XwX9X",
"Q.wX5X=Xj.z X f 3.i.i.3.j $ 3 e.&XwXyX~.Z yXrX1XA.m X t X.i.i.0.Y > , r.#X3XwX9X",
"Q.wX5X-Xj.c X f @.5.5.@.j , w f V F z.A l G F C v 6 < 7  .5.5.@.k : , 3.#XqX6X.X",
"E.wX5X=Xj.z t s ! T c U J d 3 T 7.n.(.F x (.~.x.) 7 u s R ! 9 U U j : r.#X6XwXXX",
"/.tX1X-Xj.z K ] w.r.T o.[ E 2 u.;XeXyX~.Z rXeX2XS.v h ] q.p.T q.o.{ > 3.#X5X6X.X",
"^.rX5X=Xg.z 7 j T N c M j f 3 p.J.3X7Xb.C 2X5X&Xk.n 0 j N T 9 M k d , 3.#X6X6X.X",
"9.6X5X'.l.z 5 p ..p.r.#.h O 3 f.S.oX;Xx.n -X$XD.A.B X t X.i.i.$.U : $ a.G.;X7X).",
"*.N.M.s.3.7 e f ) i.5.#.k * = #.h.s.u.R 9 e.s.f.u.g X r  .5.5.#.J : < ..y.d.B.6.",
"S X.| 1.) 5 u s R ! 6 - 3 3 3 w w 2 2 - 3 3 2 2 * * u k Y ! u U J g 1 Y 1.....( ",
">.;X-XF.j.z K [ w.r.7 & 3 w = * q d p f w f p p g e k ] q.p.T 0.o.I > a.S.+X1XV.",
"c.6X2X&Xj.z r h T T y w 5 = 5 w f k s m r m M s U f u a U T c M k d $ 5.'.qXqX].",
"^.rX5X<Xj.c O f m $.p.i.$.M $.s.s.! / i.i.i.$.m @.i.i./ R p.i.0.U > , r.$X2X7X9X",
"!.wX4X=Xj.z o u v @.5.$.+.f +.5.$.T R 5.5.5.@.p +.i.0.T T $.5.@.k : , 3.#X5X7X,X",
"E.wX5X=Xj.z t k T T 9 ! _ _ T 9 ~ _ _ ! 9 ! _ _ T y T _ _ ! u T J j : r.#X5X6X.X",
"!.wX4X-Xf.z K ] w.w.T p.h.h.w.T p.h.h.w.N w.h.h.p.T t.h.h.p.T 0.o.I > r.@X5X6X{.",
">.1X1XG.l.z r k W R p Q ( ~ T 9 ~ ~ ) R p R ! ~ T u T ^ / Q p U U d : r.F.$XqX).",
"S 8.6.4...5 + 1 a a k a ;   + >   # i s s s q     % X . i s s s r O % Q 4.4.8.%.",
"S O.3.2.3.) 5 v v c c v b b 7 u b c c c v c 7 v b c c v v v c b b r m 3.2.#.3./ ",
"&.G.#X$X'.3.X.l.j.j.j.j.j.l.) 3.k.k.k.k.j.y.Q g.k.k.j.j.B.j.j.j.l.t.` G.#X$X'.r.",
">.;X6X5X6Xb.2.J.-X;X-X<X&XF.1.a.'.-X-X-X#Xh.` A.&X-X-X-X-X<X-X-X@Xs.7.-X6X5X6XV.",
"v.6X<X<X7X{.4.1X5X5X5X1X6X-X%.M.6X5X6X5X5XZ.Q %X6X5X5X5X5X5X5X5X6XB.x.7X5X<X6X{.",
">.6XtXrXwXV.4.1X6XwXrXrX6X;X .M.1X6XqXrXwXH.Q &X6X7XwXtX6XwXtXwX6XB.7.6XeXrXwXC.",
";.<.T.T.P.-.D ,.L.L.U.U.<.:.D D <.L.L.Y.L.-.S ;.L.L.I.T.P.Y.T.I.,.;.D <.Y.T.I.;."
};
